solid Hub Flat
   facet normal 8.660254e-001 0.000000e+000 -5.000000e-001
      outer loop
         vertex 4.500000e+001 1.000000e+001 0.000000e+000
         vertex 4.875000e+001 1.000000e+001 6.495189e+000
         vertex 4.500000e+001 -3.469447e-015 0.000000e+000
      endloop
   endfacet
   facet normal 8.660254e-001 0.000000e+000 -5.000000e-001
      outer loop
         vertex 4.500000e+001 -3.469447e-015 0.000000e+000
         vertex 4.875000e+001 1.000000e+001 6.495189e+000
         vertex 4.875000e+001 -3.469447e-015 6.495189e+000
      endloop
   endfacet
   facet normal -8.660254e-001 0.000000e+000 -5.000000e-001
      outer loop
         vertex 3.000000e+001 -3.469447e-015 0.000000e+000
         vertex 2.630000e+001 -3.469447e-015 6.408587e+000
         vertex 3.000000e+001 1.000000e+001 0.000000e+000
      endloop
   endfacet
   facet normal -8.660254e-001 0.000000e+000 -5.000000e-001
      outer loop
         vertex 3.000000e+001 1.000000e+001 0.000000e+000
         vertex 2.630000e+001 -3.469447e-015 6.408587e+000
         vertex 2.630000e+001 1.000000e+001 6.408587e+000
      endloop
   endfacet
   facet normal -8.660254e-001 0.000000e+000 -5.000000e-001
      outer loop
         vertex 1.370000e+001 -3.469447e-015 2.823243e+001
         vertex -1.387779e-014 -3.469447e-015 5.196152e+001
         vertex 1.370000e+001 1.000000e+001 2.823243e+001
      endloop
   endfacet
   facet normal -8.660254e-001 0.000000e+000 -5.000000e-001
      outer loop
         vertex 1.370000e+001 1.000000e+001 2.823243e+001
         vertex -1.387779e-014 -3.469447e-015 5.196152e+001
         vertex -1.387779e-014 1.000000e+001 5.196152e+001
      endloop
   endfacet
   facet normal 0.000000e+000 0.000000e+000 1.000000e+000
      outer loop
         vertex 7.500000e+001 1.000000e+001 5.196152e+001
         vertex 0.000000e+000 1.000000e+001 5.196152e+001
         vertex 7.500000e+001 0.000000e+000 5.196152e+001
      endloop
   endfacet
   facet normal 0.000000e+000 0.000000e+000 1.000000e+000
      outer loop
         vertex 7.500000e+001 0.000000e+000 5.196152e+001
         vertex 0.000000e+000 1.000000e+001 5.196152e+001
         vertex 0.000000e+000 0.000000e+000 5.196152e+001
      endloop
   endfacet
   facet normal 8.660254e-001 0.000000e+000 -5.000000e-001
      outer loop
         vertex 6.125000e+001 1.000000e+001 2.814582e+001
         vertex 7.500000e+001 1.000000e+001 5.196152e+001
         vertex 6.125000e+001 -3.469447e-015 2.814582e+001
      endloop
   endfacet
   facet normal 8.660254e-001 0.000000e+000 -5.000000e-001
      outer loop
         vertex 6.125000e+001 -3.469447e-015 2.814582e+001
         vertex 7.500000e+001 1.000000e+001 5.196152e+001
         vertex 7.500000e+001 -3.469447e-015 5.196152e+001
      endloop
   endfacet
   facet normal 0.000000e+000 1.000000e+000 0.000000e+000
      outer loop
         vertex 1.370000e+001 1.000000e+001 2.823243e+001
         vertex 0.000000e+000 1.000000e+001 5.196152e+001
         vertex 1.540000e+001 1.000000e+001 3.476152e+001
      endloop
   endfacet
   facet normal 0.000000e+000 1.000000e+000 0.000000e+000
      outer loop
         vertex 1.540000e+001 1.000000e+001 3.476152e+001
         vertex 0.000000e+000 1.000000e+001 5.196152e+001
         vertex 1.540000e+001 1.000000e+001 4.396152e+001
      endloop
   endfacet
   facet normal 0.000000e+000 1.000000e+000 0.000000e+000
      outer loop
         vertex 5.960000e+001 1.000000e+001 3.476152e+001
         vertex 5.308013e+001 1.000000e+001 3.995188e+000
         vertex 4.875000e+001 1.000000e+001 6.495189e+000
      endloop
   endfacet
   facet normal 0.000000e+000 1.000000e+000 0.000000e+000
      outer loop
         vertex 1.540000e+001 1.000000e+001 4.396152e+001
         vertex 0.000000e+000 1.000000e+001 5.196152e+001
         vertex 2.460000e+001 1.000000e+001 4.396152e+001
      endloop
   endfacet
   facet normal 0.000000e+000 1.000000e+000 0.000000e+000
      outer loop
         vertex 2.460000e+001 1.000000e+001 4.396152e+001
         vertex 0.000000e+000 1.000000e+001 5.196152e+001
         vertex 7.500000e+001 1.000000e+001 5.196152e+001
      endloop
   endfacet
   facet normal 0.000000e+000 1.000000e+000 0.000000e+000
      outer loop
         vertex 2.460000e+001 1.000000e+001 4.396152e+001
         vertex 7.500000e+001 1.000000e+001 5.196152e+001
         vertex 5.040000e+001 1.000000e+001 4.396152e+001
      endloop
   endfacet
   facet normal 0.000000e+000 1.000000e+000 0.000000e+000
      outer loop
         vertex 3.000000e+001 1.000000e+001 0.000000e+000
         vertex 2.630000e+001 1.000000e+001 6.408587e+000
         vertex 3.201988e+001 1.000000e+001 9.727217e-001
      endloop
   endfacet
   facet normal 0.000000e+000 1.000000e+000 0.000000e+000
      outer loop
         vertex 3.201988e+001 1.000000e+001 9.727217e-001
         vertex 2.630000e+001 1.000000e+001 6.408587e+000
         vertex 3.106314e+001 1.000000e+001 9.158586e+000
      endloop
   endfacet
   facet normal 0.000000e+000 1.000000e+000 0.000000e+000
      outer loop
         vertex 3.201988e+001 1.000000e+001 9.727217e-001
         vertex 3.106314e+001 1.000000e+001 9.158586e+000
         vertex 3.416219e+001 1.000000e+001 1.633536e+000
      endloop
   endfacet
   facet normal 0.000000e+000 1.000000e+000 0.000000e+000
      outer loop
         vertex 3.416219e+001 1.000000e+001 1.633536e+000
         vertex 3.106314e+001 1.000000e+001 9.158586e+000
         vertex 3.637905e+001 1.000000e+001 1.967676e+000
      endloop
   endfacet
   facet normal 0.000000e+000 1.000000e+000 0.000000e+000
      outer loop
         vertex 4.875000e+001 1.000000e+001 6.495189e+000
         vertex 3.845000e+001 1.000000e+001 1.036417e+001
         vertex 3.872130e+001 1.000000e+001 1.055413e+001
      endloop
   endfacet
   facet normal 0.000000e+000 1.000000e+000 0.000000e+000
      outer loop
         vertex 3.928542e+001 1.000000e+001 1.265946e+001
         vertex 3.914545e+001 1.000000e+001 1.295962e+001
         vertex 5.960000e+001 1.000000e+001 3.476152e+001
      endloop
   endfacet
   facet normal 0.000000e+000 1.000000e+000 0.000000e+000
      outer loop
         vertex 6.558013e+001 1.000000e+001 2.564582e+001
         vertex 5.308013e+001 1.000000e+001 3.995188e+000
         vertex 6.125000e+001 1.000000e+001 2.814582e+001
      endloop
   endfacet
   facet normal 0.000000e+000 1.000000e+000 0.000000e+000
      outer loop
         vertex 6.125000e+001 1.000000e+001 2.814582e+001
         vertex 5.308013e+001 1.000000e+001 3.995188e+000
         vertex 5.960000e+001 1.000000e+001 3.476152e+001
      endloop
   endfacet
   facet normal 0.000000e+000 1.000000e+000 0.000000e+000
      outer loop
         vertex 6.125000e+001 1.000000e+001 2.814582e+001
         vertex 5.960000e+001 1.000000e+001 3.476152e+001
         vertex 7.500000e+001 1.000000e+001 5.196152e+001
      endloop
   endfacet
   facet normal 0.000000e+000 1.000000e+000 0.000000e+000
      outer loop
         vertex 7.500000e+001 1.000000e+001 5.196152e+001
         vertex 5.960000e+001 1.000000e+001 3.476152e+001
         vertex 5.960000e+001 1.000000e+001 4.396152e+001
      endloop
   endfacet
   facet normal 0.000000e+000 1.000000e+000 0.000000e+000
      outer loop
         vertex 7.500000e+001 1.000000e+001 5.196152e+001
         vertex 5.960000e+001 1.000000e+001 4.396152e+001
         vertex 5.040000e+001 1.000000e+001 4.396152e+001
      endloop
   endfacet
   facet normal 0.000000e+000 1.000000e+000 0.000000e+000
      outer loop
         vertex 4.500000e+001 1.000000e+001 0.000000e+000
         vertex 4.298011e+001 1.000000e+001 9.727217e-001
         vertex 4.875000e+001 1.000000e+001 6.495189e+000
      endloop
   endfacet
   facet normal 0.000000e+000 1.000000e+000 0.000000e+000
      outer loop
         vertex 4.875000e+001 1.000000e+001 6.495189e+000
         vertex 4.298011e+001 1.000000e+001 9.727217e-001
         vertex 4.083781e+001 1.000000e+001 1.633536e+000
      endloop
   endfacet
   facet normal 0.000000e+000 1.000000e+000 0.000000e+000
      outer loop
         vertex 4.875000e+001 1.000000e+001 6.495189e+000
         vertex 4.083781e+001 1.000000e+001 1.633536e+000
         vertex 3.106314e+001 1.000000e+001 9.158586e+000
      endloop
   endfacet
   facet normal 0.000000e+000 1.000000e+000 0.000000e+000
      outer loop
         vertex 3.106314e+001 1.000000e+001 9.158586e+000
         vertex 4.083781e+001 1.000000e+001 1.633536e+000
         vertex 3.862095e+001 1.000000e+001 1.967676e+000
      endloop
   endfacet
   facet normal 0.000000e+000 1.000000e+000 0.000000e+000
      outer loop
         vertex 3.106314e+001 1.000000e+001 9.158586e+000
         vertex 3.862095e+001 1.000000e+001 1.967676e+000
         vertex 3.637905e+001 1.000000e+001 1.967676e+000
      endloop
   endfacet
   facet normal 0.000000e+000 1.000000e+000 0.000000e+000
      outer loop
         vertex 2.460000e+001 1.000000e+001 3.476152e+001
         vertex 3.655000e+001 1.000000e+001 1.365507e+001
         vertex 3.627870e+001 1.000000e+001 1.346510e+001
      endloop
   endfacet
   facet normal 0.000000e+000 1.000000e+000 0.000000e+000
      outer loop
         vertex 3.585455e+001 1.000000e+001 1.105962e+001
         vertex 3.604452e+001 1.000000e+001 1.078832e+001
         vertex 3.106314e+001 1.000000e+001 9.158586e+000
      endloop
   endfacet
   facet normal 0.000000e+000 1.000000e+000 0.000000e+000
      outer loop
         vertex 3.106314e+001 1.000000e+001 9.158586e+000
         vertex 3.604452e+001 1.000000e+001 1.078832e+001
         vertex 3.627870e+001 1.000000e+001 1.055413e+001
      endloop
   endfacet
   facet normal 0.000000e+000 1.000000e+000 0.000000e+000
      outer loop
         vertex 3.627870e+001 1.000000e+001 1.055413e+001
         vertex 3.655000e+001 1.000000e+001 1.036417e+001
         vertex 3.106314e+001 1.000000e+001 9.158586e+000
      endloop
   endfacet
   facet normal 0.000000e+000 1.000000e+000 0.000000e+000
      outer loop
         vertex 3.106314e+001 1.000000e+001 9.158586e+000
         vertex 3.655000e+001 1.000000e+001 1.036417e+001
         vertex 3.685016e+001 1.000000e+001 1.022420e+001
      endloop
   endfacet
   facet normal 0.000000e+000 1.000000e+000 0.000000e+000
      outer loop
         vertex 3.106314e+001 1.000000e+001 9.158586e+000
         vertex 3.685016e+001 1.000000e+001 1.022420e+001
         vertex 4.875000e+001 1.000000e+001 6.495189e+000
      endloop
   endfacet
   facet normal 0.000000e+000 1.000000e+000 0.000000e+000
      outer loop
         vertex 4.875000e+001 1.000000e+001 6.495189e+000
         vertex 3.685016e+001 1.000000e+001 1.022420e+001
         vertex 3.717007e+001 1.000000e+001 1.013848e+001
      endloop
   endfacet
   facet normal 0.000000e+000 1.000000e+000 0.000000e+000
      outer loop
         vertex 4.875000e+001 1.000000e+001 6.495189e+000
         vertex 3.717007e+001 1.000000e+001 1.013848e+001
         vertex 3.750000e+001 1.000000e+001 1.010962e+001
      endloop
   endfacet
   facet normal 0.000000e+000 1.000000e+000 0.000000e+000
      outer loop
         vertex 3.750000e+001 1.000000e+001 1.010962e+001
         vertex 3.782993e+001 1.000000e+001 1.013848e+001
         vertex 4.875000e+001 1.000000e+001 6.495189e+000
      endloop
   endfacet
   facet normal 0.000000e+000 1.000000e+000 0.000000e+000
      outer loop
         vertex 4.875000e+001 1.000000e+001 6.495189e+000
         vertex 3.782993e+001 1.000000e+001 1.013848e+001
         vertex 3.814984e+001 1.000000e+001 1.022420e+001
      endloop
   endfacet
   facet normal 0.000000e+000 1.000000e+000 0.000000e+000
      outer loop
         vertex 4.875000e+001 1.000000e+001 6.495189e+000
         vertex 3.814984e+001 1.000000e+001 1.022420e+001
         vertex 3.845000e+001 1.000000e+001 1.036417e+001
      endloop
   endfacet
   facet normal 0.000000e+000 1.000000e+000 0.000000e+000
      outer loop
         vertex 3.872130e+001 1.000000e+001 1.055413e+001
         vertex 3.895548e+001 1.000000e+001 1.078832e+001
         vertex 4.875000e+001 1.000000e+001 6.495189e+000
      endloop
   endfacet
   facet normal 0.000000e+000 1.000000e+000 0.000000e+000
      outer loop
         vertex 4.875000e+001 1.000000e+001 6.495189e+000
         vertex 3.895548e+001 1.000000e+001 1.078832e+001
         vertex 3.914545e+001 1.000000e+001 1.105962e+001
      endloop
   endfacet
   facet normal 0.000000e+000 1.000000e+000 0.000000e+000
      outer loop
         vertex 4.875000e+001 1.000000e+001 6.495189e+000
         vertex 3.914545e+001 1.000000e+001 1.105962e+001
         vertex 3.928542e+001 1.000000e+001 1.135978e+001
      endloop
   endfacet
   facet normal 0.000000e+000 1.000000e+000 0.000000e+000
      outer loop
         vertex 3.750000e+001 1.000000e+001 1.390962e+001
         vertex 3.717007e+001 1.000000e+001 1.388075e+001
         vertex 2.460000e+001 1.000000e+001 3.476152e+001
      endloop
   endfacet
   facet normal 0.000000e+000 1.000000e+000 0.000000e+000
      outer loop
         vertex 2.460000e+001 1.000000e+001 3.476152e+001
         vertex 3.717007e+001 1.000000e+001 1.388075e+001
         vertex 3.685016e+001 1.000000e+001 1.379503e+001
      endloop
   endfacet
   facet normal 0.000000e+000 1.000000e+000 0.000000e+000
      outer loop
         vertex 2.460000e+001 1.000000e+001 3.476152e+001
         vertex 3.685016e+001 1.000000e+001 1.379503e+001
         vertex 3.655000e+001 1.000000e+001 1.365507e+001
      endloop
   endfacet
   facet normal 0.000000e+000 1.000000e+000 0.000000e+000
      outer loop
         vertex 3.627870e+001 1.000000e+001 1.346510e+001
         vertex 3.604452e+001 1.000000e+001 1.323091e+001
         vertex 2.460000e+001 1.000000e+001 3.476152e+001
      endloop
   endfacet
   facet normal 0.000000e+000 1.000000e+000 0.000000e+000
      outer loop
         vertex 2.460000e+001 1.000000e+001 3.476152e+001
         vertex 3.604452e+001 1.000000e+001 1.323091e+001
         vertex 3.585455e+001 1.000000e+001 1.295962e+001
      endloop
   endfacet
   facet normal 0.000000e+000 1.000000e+000 0.000000e+000
      outer loop
         vertex 2.460000e+001 1.000000e+001 3.476152e+001
         vertex 3.585455e+001 1.000000e+001 1.295962e+001
         vertex 3.571458e+001 1.000000e+001 1.265946e+001
      endloop
   endfacet
   facet normal 0.000000e+000 1.000000e+000 0.000000e+000
      outer loop
         vertex 3.562887e+001 1.000000e+001 1.233955e+001
         vertex 3.560000e+001 1.000000e+001 1.200962e+001
         vertex 3.106314e+001 1.000000e+001 9.158586e+000
      endloop
   endfacet
   facet normal 0.000000e+000 1.000000e+000 0.000000e+000
      outer loop
         vertex 3.560000e+001 1.000000e+001 1.200962e+001
         vertex 3.562887e+001 1.000000e+001 1.167969e+001
         vertex 3.106314e+001 1.000000e+001 9.158586e+000
      endloop
   endfacet
   facet normal 0.000000e+000 1.000000e+000 0.000000e+000
      outer loop
         vertex 3.106314e+001 1.000000e+001 9.158586e+000
         vertex 3.562887e+001 1.000000e+001 1.167969e+001
         vertex 3.571458e+001 1.000000e+001 1.135978e+001
      endloop
   endfacet
   facet normal 0.000000e+000 1.000000e+000 0.000000e+000
      outer loop
         vertex 3.106314e+001 1.000000e+001 9.158586e+000
         vertex 3.571458e+001 1.000000e+001 1.135978e+001
         vertex 3.585455e+001 1.000000e+001 1.105962e+001
      endloop
   endfacet
   facet normal 0.000000e+000 1.000000e+000 0.000000e+000
      outer loop
         vertex 3.814984e+001 1.000000e+001 1.379503e+001
         vertex 3.782993e+001 1.000000e+001 1.388075e+001
         vertex 5.040000e+001 1.000000e+001 3.476152e+001
      endloop
   endfacet
   facet normal 0.000000e+000 1.000000e+000 0.000000e+000
      outer loop
         vertex 5.040000e+001 1.000000e+001 3.476152e+001
         vertex 3.782993e+001 1.000000e+001 1.388075e+001
         vertex 3.750000e+001 1.000000e+001 1.390962e+001
      endloop
   endfacet
   facet normal 0.000000e+000 1.000000e+000 0.000000e+000
      outer loop
         vertex 5.040000e+001 1.000000e+001 3.476152e+001
         vertex 3.750000e+001 1.000000e+001 1.390962e+001
         vertex 5.040000e+001 1.000000e+001 4.396152e+001
      endloop
   endfacet
   facet normal 0.000000e+000 1.000000e+000 0.000000e+000
      outer loop
         vertex 5.040000e+001 1.000000e+001 4.396152e+001
         vertex 3.750000e+001 1.000000e+001 1.390962e+001
         vertex 2.460000e+001 1.000000e+001 3.476152e+001
      endloop
   endfacet
   facet normal 0.000000e+000 1.000000e+000 0.000000e+000
      outer loop
         vertex 5.040000e+001 1.000000e+001 4.396152e+001
         vertex 2.460000e+001 1.000000e+001 3.476152e+001
         vertex 2.460000e+001 1.000000e+001 4.396152e+001
      endloop
   endfacet
   facet normal 0.000000e+000 1.000000e+000 0.000000e+000
      outer loop
         vertex 1.370000e+001 1.000000e+001 2.823243e+001
         vertex 1.540000e+001 1.000000e+001 3.476152e+001
         vertex 1.846314e+001 1.000000e+001 3.098243e+001
      endloop
   endfacet
   facet normal 0.000000e+000 1.000000e+000 0.000000e+000
      outer loop
         vertex 1.846314e+001 1.000000e+001 3.098243e+001
         vertex 1.540000e+001 1.000000e+001 3.476152e+001
         vertex 2.460000e+001 1.000000e+001 3.476152e+001
      endloop
   endfacet
   facet normal 0.000000e+000 1.000000e+000 0.000000e+000
      outer loop
         vertex 1.846314e+001 1.000000e+001 3.098243e+001
         vertex 2.460000e+001 1.000000e+001 3.476152e+001
         vertex 3.106314e+001 1.000000e+001 9.158586e+000
      endloop
   endfacet
   facet normal 0.000000e+000 1.000000e+000 0.000000e+000
      outer loop
         vertex 3.106314e+001 1.000000e+001 9.158586e+000
         vertex 2.460000e+001 1.000000e+001 3.476152e+001
         vertex 3.571458e+001 1.000000e+001 1.265946e+001
      endloop
   endfacet
   facet normal 0.000000e+000 1.000000e+000 0.000000e+000
      outer loop
         vertex 3.106314e+001 1.000000e+001 9.158586e+000
         vertex 3.571458e+001 1.000000e+001 1.265946e+001
         vertex 3.562887e+001 1.000000e+001 1.233955e+001
      endloop
   endfacet
   facet normal 0.000000e+000 1.000000e+000 0.000000e+000
      outer loop
         vertex 3.914545e+001 1.000000e+001 1.295962e+001
         vertex 3.895548e+001 1.000000e+001 1.323091e+001
         vertex 5.960000e+001 1.000000e+001 3.476152e+001
      endloop
   endfacet
   facet normal 0.000000e+000 1.000000e+000 0.000000e+000
      outer loop
         vertex 5.960000e+001 1.000000e+001 3.476152e+001
         vertex 3.895548e+001 1.000000e+001 1.323091e+001
         vertex 3.872130e+001 1.000000e+001 1.346510e+001
      endloop
   endfacet
   facet normal 0.000000e+000 1.000000e+000 0.000000e+000
      outer loop
         vertex 5.960000e+001 1.000000e+001 3.476152e+001
         vertex 3.872130e+001 1.000000e+001 1.346510e+001
         vertex 5.040000e+001 1.000000e+001 3.476152e+001
      endloop
   endfacet
   facet normal 0.000000e+000 1.000000e+000 0.000000e+000
      outer loop
         vertex 5.040000e+001 1.000000e+001 3.476152e+001
         vertex 3.872130e+001 1.000000e+001 1.346510e+001
         vertex 3.845000e+001 1.000000e+001 1.365507e+001
      endloop
   endfacet
   facet normal 0.000000e+000 1.000000e+000 0.000000e+000
      outer loop
         vertex 5.040000e+001 1.000000e+001 3.476152e+001
         vertex 3.845000e+001 1.000000e+001 1.365507e+001
         vertex 3.814984e+001 1.000000e+001 1.379503e+001
      endloop
   endfacet
   facet normal 0.000000e+000 1.000000e+000 0.000000e+000
      outer loop
         vertex 3.928542e+001 1.000000e+001 1.135978e+001
         vertex 3.937114e+001 1.000000e+001 1.167969e+001
         vertex 4.875000e+001 1.000000e+001 6.495189e+000
      endloop
   endfacet
   facet normal 0.000000e+000 1.000000e+000 0.000000e+000
      outer loop
         vertex 4.875000e+001 1.000000e+001 6.495189e+000
         vertex 3.937114e+001 1.000000e+001 1.167969e+001
         vertex 3.940000e+001 1.000000e+001 1.200962e+001
      endloop
   endfacet
   facet normal 0.000000e+000 1.000000e+000 0.000000e+000
      outer loop
         vertex 4.875000e+001 1.000000e+001 6.495189e+000
         vertex 3.940000e+001 1.000000e+001 1.200962e+001
         vertex 5.960000e+001 1.000000e+001 3.476152e+001
      endloop
   endfacet
   facet normal 0.000000e+000 1.000000e+000 0.000000e+000
      outer loop
         vertex 5.960000e+001 1.000000e+001 3.476152e+001
         vertex 3.940000e+001 1.000000e+001 1.200962e+001
         vertex 3.937114e+001 1.000000e+001 1.233955e+001
      endloop
   endfacet
   facet normal 0.000000e+000 1.000000e+000 0.000000e+000
      outer loop
         vertex 5.960000e+001 1.000000e+001 3.476152e+001
         vertex 3.937114e+001 1.000000e+001 1.233955e+001
         vertex 3.928542e+001 1.000000e+001 1.265946e+001
      endloop
   endfacet
   facet normal 0.000000e+000 -1.000000e+000 0.000000e+000
      outer loop
         vertex 6.125000e+001 0.000000e+000 2.814582e+001
         vertex 7.500000e+001 0.000000e+000 5.196152e+001
         vertex 0.000000e+000 0.000000e+000 5.196152e+001
      endloop
   endfacet
   facet normal 0.000000e+000 -1.000000e+000 0.000000e+000
      outer loop
         vertex 3.637905e+001 0.000000e+000 1.967676e+000
         vertex 3.862095e+001 0.000000e+000 1.967676e+000
         vertex 3.750000e+001 0.000000e+000 1.010962e+001
      endloop
   endfacet
   facet normal 0.000000e+000 -1.000000e+000 0.000000e+000
      outer loop
         vertex 0.000000e+000 0.000000e+000 5.196152e+001
         vertex 1.370000e+001 0.000000e+000 2.823243e+001
         vertex 1.846314e+001 0.000000e+000 3.098243e+001
      endloop
   endfacet
   facet normal 0.000000e+000 -1.000000e+000 0.000000e+000
      outer loop
         vertex 0.000000e+000 0.000000e+000 5.196152e+001
         vertex 4.875000e+001 0.000000e+000 6.495189e+000
         vertex 6.125000e+001 0.000000e+000 2.814582e+001
      endloop
   endfacet
   facet normal 0.000000e+000 -1.000000e+000 0.000000e+000
      outer loop
         vertex 6.125000e+001 0.000000e+000 2.814582e+001
         vertex 4.875000e+001 0.000000e+000 6.495189e+000
         vertex 5.308013e+001 0.000000e+000 3.995188e+000
      endloop
   endfacet
   facet normal 0.000000e+000 -1.000000e+000 0.000000e+000
      outer loop
         vertex 6.125000e+001 0.000000e+000 2.814582e+001
         vertex 5.308013e+001 0.000000e+000 3.995188e+000
         vertex 6.558013e+001 0.000000e+000 2.564582e+001
      endloop
   endfacet
   facet normal 0.000000e+000 -1.000000e+000 0.000000e+000
      outer loop
         vertex 3.571458e+001 0.000000e+000 1.265946e+001
         vertex 3.585455e+001 0.000000e+000 1.295962e+001
         vertex 1.846314e+001 0.000000e+000 3.098243e+001
      endloop
   endfacet
   facet normal 0.000000e+000 -1.000000e+000 0.000000e+000
      outer loop
         vertex 2.630000e+001 0.000000e+000 6.408587e+000
         vertex 3.000000e+001 0.000000e+000 0.000000e+000
         vertex 3.106314e+001 0.000000e+000 9.158586e+000
      endloop
   endfacet
   facet normal 0.000000e+000 -1.000000e+000 0.000000e+000
      outer loop
         vertex 3.106314e+001 0.000000e+000 9.158586e+000
         vertex 3.000000e+001 0.000000e+000 0.000000e+000
         vertex 3.201988e+001 0.000000e+000 9.727217e-001
      endloop
   endfacet
   facet normal 0.000000e+000 -1.000000e+000 0.000000e+000
      outer loop
         vertex 3.106314e+001 0.000000e+000 9.158586e+000
         vertex 3.201988e+001 0.000000e+000 9.727217e-001
         vertex 3.416219e+001 0.000000e+000 1.633536e+000
      endloop
   endfacet
   facet normal 0.000000e+000 -1.000000e+000 0.000000e+000
      outer loop
         vertex 3.717007e+001 0.000000e+000 1.013848e+001
         vertex 3.106314e+001 0.000000e+000 9.158586e+000
         vertex 3.750000e+001 0.000000e+000 1.010962e+001
      endloop
   endfacet
   facet normal 0.000000e+000 -1.000000e+000 0.000000e+000
      outer loop
         vertex 3.750000e+001 0.000000e+000 1.010962e+001
         vertex 3.106314e+001 0.000000e+000 9.158586e+000
         vertex 3.416219e+001 0.000000e+000 1.633536e+000
      endloop
   endfacet
   facet normal 0.000000e+000 -1.000000e+000 0.000000e+000
      outer loop
         vertex 3.750000e+001 0.000000e+000 1.010962e+001
         vertex 3.416219e+001 0.000000e+000 1.633536e+000
         vertex 3.637905e+001 0.000000e+000 1.967676e+000
      endloop
   endfacet
   facet normal 0.000000e+000 -1.000000e+000 0.000000e+000
      outer loop
         vertex 3.717007e+001 0.000000e+000 1.013848e+001
         vertex 3.685016e+001 0.000000e+000 1.022420e+001
         vertex 3.106314e+001 0.000000e+000 9.158586e+000
      endloop
   endfacet
   facet normal 0.000000e+000 -1.000000e+000 0.000000e+000
      outer loop
         vertex 3.106314e+001 0.000000e+000 9.158586e+000
         vertex 3.685016e+001 0.000000e+000 1.022420e+001
         vertex 3.655000e+001 0.000000e+000 1.036417e+001
      endloop
   endfacet
   facet normal 0.000000e+000 -1.000000e+000 0.000000e+000
      outer loop
         vertex 3.106314e+001 0.000000e+000 9.158586e+000
         vertex 3.655000e+001 0.000000e+000 1.036417e+001
         vertex 3.627870e+001 0.000000e+000 1.055413e+001
      endloop
   endfacet
   facet normal 0.000000e+000 -1.000000e+000 0.000000e+000
      outer loop
         vertex 3.627870e+001 0.000000e+000 1.055413e+001
         vertex 3.604452e+001 0.000000e+000 1.078832e+001
         vertex 3.106314e+001 0.000000e+000 9.158586e+000
      endloop
   endfacet
   facet normal 0.000000e+000 -1.000000e+000 0.000000e+000
      outer loop
         vertex 3.106314e+001 0.000000e+000 9.158586e+000
         vertex 3.604452e+001 0.000000e+000 1.078832e+001
         vertex 3.585455e+001 0.000000e+000 1.105962e+001
      endloop
   endfacet
   facet normal 0.000000e+000 -1.000000e+000 0.000000e+000
      outer loop
         vertex 3.106314e+001 0.000000e+000 9.158586e+000
         vertex 3.585455e+001 0.000000e+000 1.105962e+001
         vertex 3.571458e+001 0.000000e+000 1.135978e+001
      endloop
   endfacet
   facet normal 0.000000e+000 -1.000000e+000 0.000000e+000
      outer loop
         vertex 3.585455e+001 0.000000e+000 1.295962e+001
         vertex 3.604452e+001 0.000000e+000 1.323091e+001
         vertex 1.846314e+001 0.000000e+000 3.098243e+001
      endloop
   endfacet
   facet normal 0.000000e+000 -1.000000e+000 0.000000e+000
      outer loop
         vertex 1.846314e+001 0.000000e+000 3.098243e+001
         vertex 3.604452e+001 0.000000e+000 1.323091e+001
         vertex 3.627870e+001 0.000000e+000 1.346510e+001
      endloop
   endfacet
   facet normal 0.000000e+000 -1.000000e+000 0.000000e+000
      outer loop
         vertex 1.846314e+001 0.000000e+000 3.098243e+001
         vertex 3.627870e+001 0.000000e+000 1.346510e+001
         vertex 3.655000e+001 0.000000e+000 1.365507e+001
      endloop
   endfacet
   facet normal 0.000000e+000 -1.000000e+000 0.000000e+000
      outer loop
         vertex 3.571458e+001 0.000000e+000 1.135978e+001
         vertex 3.562887e+001 0.000000e+000 1.167969e+001
         vertex 3.106314e+001 0.000000e+000 9.158586e+000
      endloop
   endfacet
   facet normal 0.000000e+000 -1.000000e+000 0.000000e+000
      outer loop
         vertex 3.106314e+001 0.000000e+000 9.158586e+000
         vertex 3.562887e+001 0.000000e+000 1.167969e+001
         vertex 3.560000e+001 0.000000e+000 1.200962e+001
      endloop
   endfacet
   facet normal 0.000000e+000 -1.000000e+000 0.000000e+000
      outer loop
         vertex 3.106314e+001 0.000000e+000 9.158586e+000
         vertex 3.560000e+001 0.000000e+000 1.200962e+001
         vertex 1.846314e+001 0.000000e+000 3.098243e+001
      endloop
   endfacet
   facet normal 0.000000e+000 -1.000000e+000 0.000000e+000
      outer loop
         vertex 1.846314e+001 0.000000e+000 3.098243e+001
         vertex 3.560000e+001 0.000000e+000 1.200962e+001
         vertex 3.562887e+001 0.000000e+000 1.233955e+001
      endloop
   endfacet
   facet normal 0.000000e+000 -1.000000e+000 0.000000e+000
      outer loop
         vertex 1.846314e+001 0.000000e+000 3.098243e+001
         vertex 3.562887e+001 0.000000e+000 1.233955e+001
         vertex 3.571458e+001 0.000000e+000 1.265946e+001
      endloop
   endfacet
   facet normal 0.000000e+000 -1.000000e+000 0.000000e+000
      outer loop
         vertex 1.846314e+001 0.000000e+000 3.098243e+001
         vertex 3.845000e+001 0.000000e+000 1.365507e+001
         vertex 3.872130e+001 0.000000e+000 1.346510e+001
      endloop
   endfacet
   facet normal 0.000000e+000 -1.000000e+000 0.000000e+000
      outer loop
         vertex 0.000000e+000 0.000000e+000 5.196152e+001
         vertex 1.846314e+001 0.000000e+000 3.098243e+001
         vertex 4.875000e+001 0.000000e+000 6.495189e+000
      endloop
   endfacet
   facet normal 0.000000e+000 -1.000000e+000 0.000000e+000
      outer loop
         vertex 4.875000e+001 0.000000e+000 6.495189e+000
         vertex 1.846314e+001 0.000000e+000 3.098243e+001
         vertex 3.872130e+001 0.000000e+000 1.346510e+001
      endloop
   endfacet
   facet normal 0.000000e+000 -1.000000e+000 0.000000e+000
      outer loop
         vertex 4.875000e+001 0.000000e+000 6.495189e+000
         vertex 3.872130e+001 0.000000e+000 1.346510e+001
         vertex 3.895548e+001 0.000000e+000 1.323091e+001
      endloop
   endfacet
   facet normal 0.000000e+000 -1.000000e+000 0.000000e+000
      outer loop
         vertex 3.655000e+001 0.000000e+000 1.365507e+001
         vertex 3.685016e+001 0.000000e+000 1.379503e+001
         vertex 1.846314e+001 0.000000e+000 3.098243e+001
      endloop
   endfacet
   facet normal 0.000000e+000 -1.000000e+000 0.000000e+000
      outer loop
         vertex 1.846314e+001 0.000000e+000 3.098243e+001
         vertex 3.685016e+001 0.000000e+000 1.379503e+001
         vertex 3.717007e+001 0.000000e+000 1.388075e+001
      endloop
   endfacet
   facet normal 0.000000e+000 -1.000000e+000 0.000000e+000
      outer loop
         vertex 1.846314e+001 0.000000e+000 3.098243e+001
         vertex 3.717007e+001 0.000000e+000 1.388075e+001
         vertex 3.750000e+001 0.000000e+000 1.390962e+001
      endloop
   endfacet
   facet normal 0.000000e+000 -1.000000e+000 0.000000e+000
      outer loop
         vertex 3.750000e+001 0.000000e+000 1.390962e+001
         vertex 3.782993e+001 0.000000e+000 1.388075e+001
         vertex 1.846314e+001 0.000000e+000 3.098243e+001
      endloop
   endfacet
   facet normal 0.000000e+000 -1.000000e+000 0.000000e+000
      outer loop
         vertex 1.846314e+001 0.000000e+000 3.098243e+001
         vertex 3.782993e+001 0.000000e+000 1.388075e+001
         vertex 3.814984e+001 0.000000e+000 1.379503e+001
      endloop
   endfacet
   facet normal 0.000000e+000 -1.000000e+000 0.000000e+000
      outer loop
         vertex 1.846314e+001 0.000000e+000 3.098243e+001
         vertex 3.814984e+001 0.000000e+000 1.379503e+001
         vertex 3.845000e+001 0.000000e+000 1.365507e+001
      endloop
   endfacet
   facet normal 0.000000e+000 -1.000000e+000 0.000000e+000
      outer loop
         vertex 4.298011e+001 0.000000e+000 9.727217e-001
         vertex 4.500000e+001 0.000000e+000 0.000000e+000
         vertex 3.845000e+001 0.000000e+000 1.036417e+001
      endloop
   endfacet
   facet normal 0.000000e+000 -1.000000e+000 0.000000e+000
      outer loop
         vertex 3.895548e+001 0.000000e+000 1.323091e+001
         vertex 3.914545e+001 0.000000e+000 1.295962e+001
         vertex 4.875000e+001 0.000000e+000 6.495189e+000
      endloop
   endfacet
   facet normal 0.000000e+000 -1.000000e+000 0.000000e+000
      outer loop
         vertex 4.875000e+001 0.000000e+000 6.495189e+000
         vertex 3.914545e+001 0.000000e+000 1.295962e+001
         vertex 3.928542e+001 0.000000e+000 1.265946e+001
      endloop
   endfacet
   facet normal 0.000000e+000 -1.000000e+000 0.000000e+000
      outer loop
         vertex 4.875000e+001 0.000000e+000 6.495189e+000
         vertex 3.928542e+001 0.000000e+000 1.265946e+001
         vertex 3.937114e+001 0.000000e+000 1.233955e+001
      endloop
   endfacet
   facet normal 0.000000e+000 -1.000000e+000 0.000000e+000
      outer loop
         vertex 3.937114e+001 0.000000e+000 1.233955e+001
         vertex 3.940000e+001 0.000000e+000 1.200962e+001
         vertex 4.875000e+001 0.000000e+000 6.495189e+000
      endloop
   endfacet
   facet normal 0.000000e+000 -1.000000e+000 0.000000e+000
      outer loop
         vertex 4.875000e+001 0.000000e+000 6.495189e+000
         vertex 3.940000e+001 0.000000e+000 1.200962e+001
         vertex 3.937114e+001 0.000000e+000 1.167969e+001
      endloop
   endfacet
   facet normal 0.000000e+000 -1.000000e+000 0.000000e+000
      outer loop
         vertex 4.875000e+001 0.000000e+000 6.495189e+000
         vertex 3.937114e+001 0.000000e+000 1.167969e+001
         vertex 3.928542e+001 0.000000e+000 1.135978e+001
      endloop
   endfacet
   facet normal 0.000000e+000 -1.000000e+000 0.000000e+000
      outer loop
         vertex 3.928542e+001 0.000000e+000 1.135978e+001
         vertex 3.914545e+001 0.000000e+000 1.105962e+001
         vertex 4.875000e+001 0.000000e+000 6.495189e+000
      endloop
   endfacet
   facet normal 0.000000e+000 -1.000000e+000 0.000000e+000
      outer loop
         vertex 4.875000e+001 0.000000e+000 6.495189e+000
         vertex 3.914545e+001 0.000000e+000 1.105962e+001
         vertex 3.895548e+001 0.000000e+000 1.078832e+001
      endloop
   endfacet
   facet normal 0.000000e+000 -1.000000e+000 0.000000e+000
      outer loop
         vertex 4.875000e+001 0.000000e+000 6.495189e+000
         vertex 3.895548e+001 0.000000e+000 1.078832e+001
         vertex 4.500000e+001 0.000000e+000 0.000000e+000
      endloop
   endfacet
   facet normal 0.000000e+000 -1.000000e+000 0.000000e+000
      outer loop
         vertex 4.500000e+001 0.000000e+000 0.000000e+000
         vertex 3.895548e+001 0.000000e+000 1.078832e+001
         vertex 3.872130e+001 0.000000e+000 1.055413e+001
      endloop
   endfacet
   facet normal 0.000000e+000 -1.000000e+000 0.000000e+000
      outer loop
         vertex 4.500000e+001 0.000000e+000 0.000000e+000
         vertex 3.872130e+001 0.000000e+000 1.055413e+001
         vertex 3.845000e+001 0.000000e+000 1.036417e+001
      endloop
   endfacet
   facet normal 0.000000e+000 -1.000000e+000 0.000000e+000
      outer loop
         vertex 4.298011e+001 0.000000e+000 9.727217e-001
         vertex 3.845000e+001 0.000000e+000 1.036417e+001
         vertex 4.083781e+001 0.000000e+000 1.633536e+000
      endloop
   endfacet
   facet normal 0.000000e+000 -1.000000e+000 0.000000e+000
      outer loop
         vertex 4.083781e+001 0.000000e+000 1.633536e+000
         vertex 3.845000e+001 0.000000e+000 1.036417e+001
         vertex 3.814984e+001 0.000000e+000 1.022420e+001
      endloop
   endfacet
   facet normal 0.000000e+000 -1.000000e+000 0.000000e+000
      outer loop
         vertex 4.083781e+001 0.000000e+000 1.633536e+000
         vertex 3.814984e+001 0.000000e+000 1.022420e+001
         vertex 3.862095e+001 0.000000e+000 1.967676e+000
      endloop
   endfacet
   facet normal 0.000000e+000 -1.000000e+000 0.000000e+000
      outer loop
         vertex 3.862095e+001 0.000000e+000 1.967676e+000
         vertex 3.814984e+001 0.000000e+000 1.022420e+001
         vertex 3.782993e+001 0.000000e+000 1.013848e+001
      endloop
   endfacet
   facet normal 0.000000e+000 -1.000000e+000 0.000000e+000
      outer loop
         vertex 3.862095e+001 0.000000e+000 1.967676e+000
         vertex 3.782993e+001 0.000000e+000 1.013848e+001
         vertex 3.750000e+001 0.000000e+000 1.010962e+001
      endloop
   endfacet
   facet normal -1.000000e+000 0.000000e+000 0.000000e+000
      outer loop
         vertex 2.460000e+001 3.000000e+000 3.476152e+001
         vertex 2.460000e+001 3.000000e+000 4.396152e+001
         vertex 2.460000e+001 1.000000e+001 3.476152e+001
      endloop
   endfacet
   facet normal -1.000000e+000 0.000000e+000 0.000000e+000
      outer loop
         vertex 2.460000e+001 1.000000e+001 3.476152e+001
         vertex 2.460000e+001 3.000000e+000 4.396152e+001
         vertex 2.460000e+001 1.000000e+001 4.396152e+001
      endloop
   endfacet
   facet normal 0.000000e+000 0.000000e+000 -1.000000e+000
      outer loop
         vertex 2.460000e+001 3.000000e+000 4.396152e+001
         vertex 1.540000e+001 3.000000e+000 4.396152e+001
         vertex 2.460000e+001 1.000000e+001 4.396152e+001
      endloop
   endfacet
   facet normal 0.000000e+000 0.000000e+000 -1.000000e+000
      outer loop
         vertex 2.460000e+001 1.000000e+001 4.396152e+001
         vertex 1.540000e+001 3.000000e+000 4.396152e+001
         vertex 1.540000e+001 1.000000e+001 4.396152e+001
      endloop
   endfacet
   facet normal 1.000000e+000 0.000000e+000 0.000000e+000
      outer loop
         vertex 1.540000e+001 3.000000e+000 4.396152e+001
         vertex 1.540000e+001 3.000000e+000 3.476152e+001
         vertex 1.540000e+001 1.000000e+001 4.396152e+001
      endloop
   endfacet
   facet normal 1.000000e+000 0.000000e+000 0.000000e+000
      outer loop
         vertex 1.540000e+001 1.000000e+001 4.396152e+001
         vertex 1.540000e+001 3.000000e+000 3.476152e+001
         vertex 1.540000e+001 1.000000e+001 3.476152e+001
      endloop
   endfacet
   facet normal 0.000000e+000 0.000000e+000 1.000000e+000
      outer loop
         vertex 1.540000e+001 3.000000e+000 3.476152e+001
         vertex 2.460000e+001 3.000000e+000 3.476152e+001
         vertex 1.540000e+001 1.000000e+001 3.476152e+001
      endloop
   endfacet
   facet normal 0.000000e+000 0.000000e+000 1.000000e+000
      outer loop
         vertex 1.540000e+001 1.000000e+001 3.476152e+001
         vertex 2.460000e+001 3.000000e+000 3.476152e+001
         vertex 2.460000e+001 1.000000e+001 3.476152e+001
      endloop
   endfacet
   facet normal 0.000000e+000 1.000000e+000 0.000000e+000
      outer loop
         vertex 1.540000e+001 3.000000e+000 3.476152e+001
         vertex 1.540000e+001 3.000000e+000 4.396152e+001
         vertex 2.460000e+001 3.000000e+000 3.476152e+001
      endloop
   endfacet
   facet normal 0.000000e+000 1.000000e+000 0.000000e+000
      outer loop
         vertex 2.460000e+001 3.000000e+000 3.476152e+001
         vertex 1.540000e+001 3.000000e+000 4.396152e+001
         vertex 2.460000e+001 3.000000e+000 4.396152e+001
      endloop
   endfacet
   facet normal -1.885569e-016 0.000000e+000 -1.000000e+000
      outer loop
         vertex 5.960000e+001 3.000000e+000 4.396152e+001
         vertex 5.040000e+001 3.000000e+000 4.396152e+001
         vertex 5.960000e+001 1.000000e+001 4.396152e+001
      endloop
   endfacet
   facet normal -1.885569e-016 0.000000e+000 -1.000000e+000
      outer loop
         vertex 5.960000e+001 1.000000e+001 4.396152e+001
         vertex 5.040000e+001 3.000000e+000 4.396152e+001
         vertex 5.040000e+001 1.000000e+001 4.396152e+001
      endloop
   endfacet
   facet normal 1.000000e+000 0.000000e+000 0.000000e+000
      outer loop
         vertex 5.040000e+001 3.000000e+000 4.396152e+001
         vertex 5.040000e+001 3.000000e+000 3.476152e+001
         vertex 5.040000e+001 1.000000e+001 4.396152e+001
      endloop
   endfacet
   facet normal 1.000000e+000 0.000000e+000 0.000000e+000
      outer loop
         vertex 5.040000e+001 1.000000e+001 4.396152e+001
         vertex 5.040000e+001 3.000000e+000 3.476152e+001
         vertex 5.040000e+001 1.000000e+001 3.476152e+001
      endloop
   endfacet
   facet normal 3.771138e-016 0.000000e+000 1.000000e+000
      outer loop
         vertex 5.040000e+001 3.000000e+000 3.476152e+001
         vertex 5.960000e+001 3.000000e+000 3.476152e+001
         vertex 5.040000e+001 1.000000e+001 3.476152e+001
      endloop
   endfacet
   facet normal 3.771138e-016 0.000000e+000 1.000000e+000
      outer loop
         vertex 5.040000e+001 1.000000e+001 3.476152e+001
         vertex 5.960000e+001 3.000000e+000 3.476152e+001
         vertex 5.960000e+001 1.000000e+001 3.476152e+001
      endloop
   endfacet
   facet normal -1.000000e+000 0.000000e+000 0.000000e+000
      outer loop
         vertex 5.960000e+001 3.000000e+000 3.476152e+001
         vertex 5.960000e+001 3.000000e+000 4.396152e+001
         vertex 5.960000e+001 1.000000e+001 3.476152e+001
      endloop
   endfacet
   facet normal -1.000000e+000 0.000000e+000 0.000000e+000
      outer loop
         vertex 5.960000e+001 1.000000e+001 3.476152e+001
         vertex 5.960000e+001 3.000000e+000 4.396152e+001
         vertex 5.960000e+001 1.000000e+001 4.396152e+001
      endloop
   endfacet
   facet normal 0.000000e+000 1.000000e+000 0.000000e+000
      outer loop
         vertex 5.960000e+001 3.000000e+000 3.476152e+001
         vertex 5.040000e+001 3.000000e+000 3.476152e+001
         vertex 5.960000e+001 3.000000e+000 4.396152e+001
      endloop
   endfacet
   facet normal 0.000000e+000 1.000000e+000 0.000000e+000
      outer loop
         vertex 5.960000e+001 3.000000e+000 4.396152e+001
         vertex 5.040000e+001 3.000000e+000 3.476152e+001
         vertex 5.040000e+001 3.000000e+000 4.396152e+001
      endloop
   endfacet
   facet normal -5.000000e-001 0.000000e+000 8.660254e-001
      outer loop
         vertex 2.630000e+001 0.000000e+000 6.408587e+000
         vertex 3.106314e+001 0.000000e+000 9.158586e+000
         vertex 2.630000e+001 1.000000e+001 6.408587e+000
      endloop
   endfacet
   facet normal -5.000000e-001 0.000000e+000 8.660254e-001
      outer loop
         vertex 2.630000e+001 1.000000e+001 6.408587e+000
         vertex 3.106314e+001 0.000000e+000 9.158586e+000
         vertex 3.106314e+001 1.000000e+001 9.158586e+000
      endloop
   endfacet
   facet normal -8.660254e-001 0.000000e+000 -5.000000e-001
      outer loop
         vertex 3.106314e+001 0.000000e+000 9.158586e+000
         vertex 1.846314e+001 0.000000e+000 3.098243e+001
         vertex 3.106314e+001 1.000000e+001 9.158586e+000
      endloop
   endfacet
   facet normal -8.660254e-001 0.000000e+000 -5.000000e-001
      outer loop
         vertex 3.106314e+001 1.000000e+001 9.158586e+000
         vertex 1.846314e+001 0.000000e+000 3.098243e+001
         vertex 1.846314e+001 1.000000e+001 3.098243e+001
      endloop
   endfacet
   facet normal 5.000000e-001 0.000000e+000 -8.660254e-001
      outer loop
         vertex 1.846314e+001 0.000000e+000 3.098243e+001
         vertex 1.370000e+001 0.000000e+000 2.823243e+001
         vertex 1.846314e+001 1.000000e+001 3.098243e+001
      endloop
   endfacet
   facet normal 5.000000e-001 0.000000e+000 -8.660254e-001
      outer loop
         vertex 1.846314e+001 1.000000e+001 3.098243e+001
         vertex 1.370000e+001 0.000000e+000 2.823243e+001
         vertex 1.370000e+001 1.000000e+001 2.823243e+001
      endloop
   endfacet
   facet normal -5.000000e-001 0.000000e+000 -8.660254e-001
      outer loop
         vertex 5.308013e+001 0.000000e+000 3.995188e+000
         vertex 4.875000e+001 0.000000e+000 6.495189e+000
         vertex 5.308013e+001 1.000000e+001 3.995188e+000
      endloop
   endfacet
   facet normal -5.000000e-001 0.000000e+000 -8.660254e-001
      outer loop
         vertex 5.308013e+001 1.000000e+001 3.995188e+000
         vertex 4.875000e+001 0.000000e+000 6.495189e+000
         vertex 4.875000e+001 1.000000e+001 6.495189e+000
      endloop
   endfacet
   facet normal 8.660254e-001 0.000000e+000 -5.000000e-001
      outer loop
         vertex 6.558013e+001 0.000000e+000 2.564582e+001
         vertex 5.308013e+001 0.000000e+000 3.995188e+000
         vertex 6.558013e+001 1.000000e+001 2.564582e+001
      endloop
   endfacet
   facet normal 8.660254e-001 0.000000e+000 -5.000000e-001
      outer loop
         vertex 6.558013e+001 1.000000e+001 2.564582e+001
         vertex 5.308013e+001 0.000000e+000 3.995188e+000
         vertex 5.308013e+001 1.000000e+001 3.995188e+000
      endloop
   endfacet
   facet normal 5.000000e-001 0.000000e+000 8.660254e-001
      outer loop
         vertex 6.125000e+001 0.000000e+000 2.814582e+001
         vertex 6.558013e+001 0.000000e+000 2.564582e+001
         vertex 6.125000e+001 1.000000e+001 2.814582e+001
      endloop
   endfacet
   facet normal 5.000000e-001 0.000000e+000 8.660254e-001
      outer loop
         vertex 6.125000e+001 1.000000e+001 2.814582e+001
         vertex 6.558013e+001 0.000000e+000 2.564582e+001
         vertex 6.558013e+001 1.000000e+001 2.564582e+001
      endloop
   endfacet
   facet normal 4.562475e-001 0.000000e+000 -8.898529e-001
      outer loop
         vertex 3.000000e+001 0.000000e+000 0.000000e+000
         vertex 3.000000e+001 1.000000e+001 0.000000e+000
         vertex 3.201988e+001 1.000000e+001 9.727217e-001
      endloop
   endfacet
   facet normal 4.112494e-001 0.000000e+000 -9.115229e-001
      outer loop
         vertex 3.000000e+001 0.000000e+000 0.000000e+000
         vertex 3.201988e+001 1.000000e+001 9.727217e-001
         vertex 3.201988e+001 0.000000e+000 9.727217e-001
      endloop
   endfacet
   facet normal 3.185259e-001 0.000000e+000 -9.479141e-001
      outer loop
         vertex 3.201988e+001 0.000000e+000 9.727217e-001
         vertex 3.201988e+001 1.000000e+001 9.727217e-001
         vertex 3.416219e+001 1.000000e+001 1.633536e+000
      endloop
   endfacet
   facet normal 2.708006e-001 0.000000e+000 -9.626355e-001
      outer loop
         vertex 3.201988e+001 0.000000e+000 9.727217e-001
         vertex 3.416219e+001 1.000000e+001 1.633536e+000
         vertex 3.416219e+001 0.000000e+000 1.633536e+000
      endloop
   endfacet
   facet normal 1.736889e-001 0.000000e+000 -9.848005e-001
      outer loop
         vertex 3.416219e+001 0.000000e+000 1.633536e+000
         vertex 3.416219e+001 1.000000e+001 1.633536e+000
         vertex 3.637905e+001 1.000000e+001 1.967676e+000
      endloop
   endfacet
   facet normal 1.243026e-001 0.000000e+000 -9.922444e-001
      outer loop
         vertex 3.416219e+001 0.000000e+000 1.633536e+000
         vertex 3.637905e+001 1.000000e+001 1.967676e+000
         vertex 3.637905e+001 0.000000e+000 1.967676e+000
      endloop
   endfacet
   facet normal 2.497209e-002 0.000000e+000 -9.996881e-001
      outer loop
         vertex 3.637905e+001 0.000000e+000 1.967676e+000
         vertex 3.637905e+001 1.000000e+001 1.967676e+000
         vertex 3.862095e+001 1.000000e+001 1.967676e+000
      endloop
   endfacet
   facet normal -2.497209e-002 0.000000e+000 -9.996881e-001
      outer loop
         vertex 3.637905e+001 0.000000e+000 1.967676e+000
         vertex 3.862095e+001 1.000000e+001 1.967676e+000
         vertex 3.862095e+001 0.000000e+000 1.967676e+000
      endloop
   endfacet
   facet normal -1.243026e-001 0.000000e+000 -9.922444e-001
      outer loop
         vertex 3.862095e+001 0.000000e+000 1.967676e+000
         vertex 3.862095e+001 1.000000e+001 1.967676e+000
         vertex 4.083781e+001 1.000000e+001 1.633536e+000
      endloop
   endfacet
   facet normal -1.736889e-001 0.000000e+000 -9.848005e-001
      outer loop
         vertex 3.862095e+001 0.000000e+000 1.967676e+000
         vertex 4.083781e+001 1.000000e+001 1.633536e+000
         vertex 4.083781e+001 0.000000e+000 1.633536e+000
      endloop
   endfacet
   facet normal -2.708006e-001 0.000000e+000 -9.626355e-001
      outer loop
         vertex 4.083781e+001 0.000000e+000 1.633536e+000
         vertex 4.083781e+001 1.000000e+001 1.633536e+000
         vertex 4.298011e+001 1.000000e+001 9.727217e-001
      endloop
   endfacet
   facet normal -3.185259e-001 0.000000e+000 -9.479141e-001
      outer loop
         vertex 4.083781e+001 0.000000e+000 1.633536e+000
         vertex 4.298011e+001 1.000000e+001 9.727217e-001
         vertex 4.298011e+001 0.000000e+000 9.727217e-001
      endloop
   endfacet
   facet normal -4.112494e-001 0.000000e+000 -9.115229e-001
      outer loop
         vertex 4.298011e+001 0.000000e+000 9.727217e-001
         vertex 4.298011e+001 1.000000e+001 9.727217e-001
         vertex 4.500000e+001 1.000000e+001 0.000000e+000
      endloop
   endfacet
   facet normal -4.562475e-001 0.000000e+000 -8.898529e-001
      outer loop
         vertex 4.298011e+001 0.000000e+000 9.727217e-001
         vertex 4.500000e+001 1.000000e+001 0.000000e+000
         vertex 4.500000e+001 0.000000e+000 0.000000e+000
      endloop
   endfacet
   facet normal 5.807913e-002 0.000000e+000 -9.983119e-001
      outer loop
         vertex 3.717007e+001 0.000000e+000 1.388075e+001
         vertex 3.750000e+001 1.000000e+001 1.390962e+001
         vertex 3.750000e+001 0.000000e+000 1.390962e+001
      endloop
   endfacet
   facet normal -5.807913e-002 0.000000e+000 -9.983119e-001
      outer loop
         vertex 3.750000e+001 0.000000e+000 1.390962e+001
         vertex 3.750000e+001 1.000000e+001 1.390962e+001
         vertex 3.782993e+001 1.000000e+001 1.388075e+001
      endloop
   endfacet
   facet normal -1.161583e-001 0.000000e+000 -9.932307e-001
      outer loop
         vertex 3.750000e+001 0.000000e+000 1.390962e+001
         vertex 3.782993e+001 1.000000e+001 1.388075e+001
         vertex 3.782993e+001 0.000000e+000 1.388075e+001
      endloop
   endfacet
   facet normal -2.305519e-001 0.000000e+000 -9.730600e-001
      outer loop
         vertex 3.782993e+001 0.000000e+000 1.388075e+001
         vertex 3.782993e+001 1.000000e+001 1.388075e+001
         vertex 3.814984e+001 1.000000e+001 1.379503e+001
      endloop
   endfacet
   facet normal -2.868663e-001 0.000000e+000 -9.579706e-001
      outer loop
         vertex 3.782993e+001 0.000000e+000 1.388075e+001
         vertex 3.814984e+001 1.000000e+001 1.379503e+001
         vertex 3.814984e+001 0.000000e+000 1.379503e+001
      endloop
   endfacet
   facet normal -3.960194e-001 0.000000e+000 -9.182422e-001
      outer loop
         vertex 3.814984e+001 0.000000e+000 1.379503e+001
         vertex 3.814984e+001 1.000000e+001 1.379503e+001
         vertex 3.845000e+001 1.000000e+001 1.365507e+001
      endloop
   endfacet
   facet normal -4.488580e-001 0.000000e+000 -8.936031e-001
      outer loop
         vertex 3.814984e+001 0.000000e+000 1.379503e+001
         vertex 3.845000e+001 1.000000e+001 1.365507e+001
         vertex 3.845000e+001 0.000000e+000 1.365507e+001
      endloop
   endfacet
   facet normal -5.494540e-001 0.000000e+000 -8.355240e-001
      outer loop
         vertex 3.845000e+001 0.000000e+000 1.365507e+001
         vertex 3.845000e+001 1.000000e+001 1.365507e+001
         vertex 3.872130e+001 1.000000e+001 1.346510e+001
      endloop
   endfacet
   facet normal -5.972114e-001 0.000000e+000 -8.020838e-001
      outer loop
         vertex 3.845000e+001 0.000000e+000 1.365507e+001
         vertex 3.872130e+001 1.000000e+001 1.346510e+001
         vertex 3.872130e+001 0.000000e+000 1.346510e+001
      endloop
   endfacet
   facet normal -6.861938e-001 0.000000e+000 -7.274188e-001
      outer loop
         vertex 3.872130e+001 0.000000e+000 1.346510e+001
         vertex 3.872130e+001 1.000000e+001 1.346510e+001
         vertex 3.895548e+001 1.000000e+001 1.323091e+001
      endloop
   endfacet
   facet normal -7.274188e-001 0.000000e+000 -6.861938e-001
      outer loop
         vertex 3.872130e+001 0.000000e+000 1.346510e+001
         vertex 3.895548e+001 1.000000e+001 1.323091e+001
         vertex 3.895548e+001 0.000000e+000 1.323091e+001
      endloop
   endfacet
   facet normal -8.020838e-001 0.000000e+000 -5.972114e-001
      outer loop
         vertex 3.895548e+001 0.000000e+000 1.323091e+001
         vertex 3.895548e+001 1.000000e+001 1.323091e+001
         vertex 3.914545e+001 1.000000e+001 1.295962e+001
      endloop
   endfacet
   facet normal -8.355240e-001 0.000000e+000 -5.494540e-001
      outer loop
         vertex 3.895548e+001 0.000000e+000 1.323091e+001
         vertex 3.914545e+001 1.000000e+001 1.295962e+001
         vertex 3.914545e+001 0.000000e+000 1.295962e+001
      endloop
   endfacet
   facet normal -8.936031e-001 0.000000e+000 -4.488580e-001
      outer loop
         vertex 3.914545e+001 0.000000e+000 1.295962e+001
         vertex 3.914545e+001 1.000000e+001 1.295962e+001
         vertex 3.928542e+001 1.000000e+001 1.265946e+001
      endloop
   endfacet
   facet normal -9.182422e-001 0.000000e+000 -3.960194e-001
      outer loop
         vertex 3.914545e+001 0.000000e+000 1.295962e+001
         vertex 3.928542e+001 1.000000e+001 1.265946e+001
         vertex 3.928542e+001 0.000000e+000 1.265946e+001
      endloop
   endfacet
   facet normal -9.579706e-001 0.000000e+000 -2.868663e-001
      outer loop
         vertex 3.928542e+001 0.000000e+000 1.265946e+001
         vertex 3.928542e+001 1.000000e+001 1.265946e+001
         vertex 3.937114e+001 1.000000e+001 1.233955e+001
      endloop
   endfacet
   facet normal -9.730600e-001 0.000000e+000 -2.305519e-001
      outer loop
         vertex 3.928542e+001 0.000000e+000 1.265946e+001
         vertex 3.937114e+001 1.000000e+001 1.233955e+001
         vertex 3.937114e+001 0.000000e+000 1.233955e+001
      endloop
   endfacet
   facet normal -9.932307e-001 0.000000e+000 -1.161583e-001
      outer loop
         vertex 3.937114e+001 0.000000e+000 1.233955e+001
         vertex 3.937114e+001 1.000000e+001 1.233955e+001
         vertex 3.940000e+001 1.000000e+001 1.200962e+001
      endloop
   endfacet
   facet normal -9.983119e-001 0.000000e+000 -5.807913e-002
      outer loop
         vertex 3.937114e+001 0.000000e+000 1.233955e+001
         vertex 3.940000e+001 1.000000e+001 1.200962e+001
         vertex 3.940000e+001 0.000000e+000 1.200962e+001
      endloop
   endfacet
   facet normal -9.983119e-001 0.000000e+000 5.807913e-002
      outer loop
         vertex 3.940000e+001 0.000000e+000 1.200962e+001
         vertex 3.940000e+001 1.000000e+001 1.200962e+001
         vertex 3.937114e+001 1.000000e+001 1.167969e+001
      endloop
   endfacet
   facet normal -9.932307e-001 0.000000e+000 1.161583e-001
      outer loop
         vertex 3.940000e+001 0.000000e+000 1.200962e+001
         vertex 3.937114e+001 1.000000e+001 1.167969e+001
         vertex 3.937114e+001 0.000000e+000 1.167969e+001
      endloop
   endfacet
   facet normal -9.730600e-001 0.000000e+000 2.305519e-001
      outer loop
         vertex 3.937114e+001 0.000000e+000 1.167969e+001
         vertex 3.937114e+001 1.000000e+001 1.167969e+001
         vertex 3.928542e+001 1.000000e+001 1.135978e+001
      endloop
   endfacet
   facet normal -9.579706e-001 0.000000e+000 2.868663e-001
      outer loop
         vertex 3.937114e+001 0.000000e+000 1.167969e+001
         vertex 3.928542e+001 1.000000e+001 1.135978e+001
         vertex 3.928542e+001 0.000000e+000 1.135978e+001
      endloop
   endfacet
   facet normal -9.182422e-001 0.000000e+000 3.960194e-001
      outer loop
         vertex 3.928542e+001 0.000000e+000 1.135978e+001
         vertex 3.928542e+001 1.000000e+001 1.135978e+001
         vertex 3.914545e+001 1.000000e+001 1.105962e+001
      endloop
   endfacet
   facet normal -8.936031e-001 0.000000e+000 4.488580e-001
      outer loop
         vertex 3.928542e+001 0.000000e+000 1.135978e+001
         vertex 3.914545e+001 1.000000e+001 1.105962e+001
         vertex 3.914545e+001 0.000000e+000 1.105962e+001
      endloop
   endfacet
   facet normal -8.355240e-001 0.000000e+000 5.494540e-001
      outer loop
         vertex 3.914545e+001 0.000000e+000 1.105962e+001
         vertex 3.914545e+001 1.000000e+001 1.105962e+001
         vertex 3.895548e+001 1.000000e+001 1.078832e+001
      endloop
   endfacet
   facet normal -8.020838e-001 0.000000e+000 5.972114e-001
      outer loop
         vertex 3.914545e+001 0.000000e+000 1.105962e+001
         vertex 3.895548e+001 1.000000e+001 1.078832e+001
         vertex 3.895548e+001 0.000000e+000 1.078832e+001
      endloop
   endfacet
   facet normal -7.274188e-001 0.000000e+000 6.861938e-001
      outer loop
         vertex 3.895548e+001 0.000000e+000 1.078832e+001
         vertex 3.895548e+001 1.000000e+001 1.078832e+001
         vertex 3.872130e+001 1.000000e+001 1.055413e+001
      endloop
   endfacet
   facet normal -6.861938e-001 0.000000e+000 7.274188e-001
      outer loop
         vertex 3.895548e+001 0.000000e+000 1.078832e+001
         vertex 3.872130e+001 1.000000e+001 1.055413e+001
         vertex 3.872130e+001 0.000000e+000 1.055413e+001
      endloop
   endfacet
   facet normal -5.972114e-001 0.000000e+000 8.020838e-001
      outer loop
         vertex 3.872130e+001 0.000000e+000 1.055413e+001
         vertex 3.872130e+001 1.000000e+001 1.055413e+001
         vertex 3.845000e+001 1.000000e+001 1.036417e+001
      endloop
   endfacet
   facet normal -5.494540e-001 0.000000e+000 8.355240e-001
      outer loop
         vertex 3.872130e+001 0.000000e+000 1.055413e+001
         vertex 3.845000e+001 1.000000e+001 1.036417e+001
         vertex 3.845000e+001 0.000000e+000 1.036417e+001
      endloop
   endfacet
   facet normal -4.488580e-001 0.000000e+000 8.936031e-001
      outer loop
         vertex 3.845000e+001 0.000000e+000 1.036417e+001
         vertex 3.845000e+001 1.000000e+001 1.036417e+001
         vertex 3.814984e+001 1.000000e+001 1.022420e+001
      endloop
   endfacet
   facet normal -3.960194e-001 0.000000e+000 9.182422e-001
      outer loop
         vertex 3.845000e+001 0.000000e+000 1.036417e+001
         vertex 3.814984e+001 1.000000e+001 1.022420e+001
         vertex 3.814984e+001 0.000000e+000 1.022420e+001
      endloop
   endfacet
   facet normal -2.868663e-001 0.000000e+000 9.579706e-001
      outer loop
         vertex 3.814984e+001 0.000000e+000 1.022420e+001
         vertex 3.814984e+001 1.000000e+001 1.022420e+001
         vertex 3.782993e+001 1.000000e+001 1.013848e+001
      endloop
   endfacet
   facet normal -2.305519e-001 0.000000e+000 9.730600e-001
      outer loop
         vertex 3.814984e+001 0.000000e+000 1.022420e+001
         vertex 3.782993e+001 1.000000e+001 1.013848e+001
         vertex 3.782993e+001 0.000000e+000 1.013848e+001
      endloop
   endfacet
   facet normal -1.161583e-001 0.000000e+000 9.932307e-001
      outer loop
         vertex 3.782993e+001 0.000000e+000 1.013848e+001
         vertex 3.782993e+001 1.000000e+001 1.013848e+001
         vertex 3.750000e+001 1.000000e+001 1.010962e+001
      endloop
   endfacet
   facet normal -5.807913e-002 0.000000e+000 9.983119e-001
      outer loop
         vertex 3.782993e+001 0.000000e+000 1.013848e+001
         vertex 3.750000e+001 1.000000e+001 1.010962e+001
         vertex 3.750000e+001 0.000000e+000 1.010962e+001
      endloop
   endfacet
   facet normal 5.807913e-002 0.000000e+000 9.983119e-001
      outer loop
         vertex 3.750000e+001 0.000000e+000 1.010962e+001
         vertex 3.750000e+001 1.000000e+001 1.010962e+001
         vertex 3.717007e+001 1.000000e+001 1.013848e+001
      endloop
   endfacet
   facet normal 1.161583e-001 0.000000e+000 9.932307e-001
      outer loop
         vertex 3.750000e+001 0.000000e+000 1.010962e+001
         vertex 3.717007e+001 1.000000e+001 1.013848e+001
         vertex 3.717007e+001 0.000000e+000 1.013848e+001
      endloop
   endfacet
   facet normal 2.305519e-001 0.000000e+000 9.730600e-001
      outer loop
         vertex 3.717007e+001 0.000000e+000 1.013848e+001
         vertex 3.717007e+001 1.000000e+001 1.013848e+001
         vertex 3.685016e+001 1.000000e+001 1.022420e+001
      endloop
   endfacet
   facet normal 2.868663e-001 0.000000e+000 9.579706e-001
      outer loop
         vertex 3.717007e+001 0.000000e+000 1.013848e+001
         vertex 3.685016e+001 1.000000e+001 1.022420e+001
         vertex 3.685016e+001 0.000000e+000 1.022420e+001
      endloop
   endfacet
   facet normal 3.960194e-001 0.000000e+000 9.182422e-001
      outer loop
         vertex 3.685016e+001 0.000000e+000 1.022420e+001
         vertex 3.685016e+001 1.000000e+001 1.022420e+001
         vertex 3.655000e+001 1.000000e+001 1.036417e+001
      endloop
   endfacet
   facet normal 4.488580e-001 0.000000e+000 8.936031e-001
      outer loop
         vertex 3.685016e+001 0.000000e+000 1.022420e+001
         vertex 3.655000e+001 1.000000e+001 1.036417e+001
         vertex 3.655000e+001 0.000000e+000 1.036417e+001
      endloop
   endfacet
   facet normal 5.494540e-001 0.000000e+000 8.355240e-001
      outer loop
         vertex 3.655000e+001 0.000000e+000 1.036417e+001
         vertex 3.655000e+001 1.000000e+001 1.036417e+001
         vertex 3.627870e+001 1.000000e+001 1.055413e+001
      endloop
   endfacet
   facet normal 5.972114e-001 0.000000e+000 8.020838e-001
      outer loop
         vertex 3.655000e+001 0.000000e+000 1.036417e+001
         vertex 3.627870e+001 1.000000e+001 1.055413e+001
         vertex 3.627870e+001 0.000000e+000 1.055413e+001
      endloop
   endfacet
   facet normal 6.861938e-001 0.000000e+000 7.274188e-001
      outer loop
         vertex 3.627870e+001 0.000000e+000 1.055413e+001
         vertex 3.627870e+001 1.000000e+001 1.055413e+001
         vertex 3.604452e+001 1.000000e+001 1.078832e+001
      endloop
   endfacet
   facet normal 7.274188e-001 0.000000e+000 6.861938e-001
      outer loop
         vertex 3.627870e+001 0.000000e+000 1.055413e+001
         vertex 3.604452e+001 1.000000e+001 1.078832e+001
         vertex 3.604452e+001 0.000000e+000 1.078832e+001
      endloop
   endfacet
   facet normal 8.020838e-001 0.000000e+000 5.972114e-001
      outer loop
         vertex 3.604452e+001 0.000000e+000 1.078832e+001
         vertex 3.604452e+001 1.000000e+001 1.078832e+001
         vertex 3.585455e+001 1.000000e+001 1.105962e+001
      endloop
   endfacet
   facet normal 8.355240e-001 0.000000e+000 5.494540e-001
      outer loop
         vertex 3.604452e+001 0.000000e+000 1.078832e+001
         vertex 3.585455e+001 1.000000e+001 1.105962e+001
         vertex 3.585455e+001 0.000000e+000 1.105962e+001
      endloop
   endfacet
   facet normal 8.936031e-001 0.000000e+000 4.488580e-001
      outer loop
         vertex 3.585455e+001 0.000000e+000 1.105962e+001
         vertex 3.585455e+001 1.000000e+001 1.105962e+001
         vertex 3.571458e+001 1.000000e+001 1.135978e+001
      endloop
   endfacet
   facet normal 9.182422e-001 0.000000e+000 3.960194e-001
      outer loop
         vertex 3.585455e+001 0.000000e+000 1.105962e+001
         vertex 3.571458e+001 1.000000e+001 1.135978e+001
         vertex 3.571458e+001 0.000000e+000 1.135978e+001
      endloop
   endfacet
   facet normal 9.579706e-001 0.000000e+000 2.868663e-001
      outer loop
         vertex 3.571458e+001 0.000000e+000 1.135978e+001
         vertex 3.571458e+001 1.000000e+001 1.135978e+001
         vertex 3.562887e+001 1.000000e+001 1.167969e+001
      endloop
   endfacet
   facet normal 9.730600e-001 0.000000e+000 2.305519e-001
      outer loop
         vertex 3.571458e+001 0.000000e+000 1.135978e+001
         vertex 3.562887e+001 1.000000e+001 1.167969e+001
         vertex 3.562887e+001 0.000000e+000 1.167969e+001
      endloop
   endfacet
   facet normal 9.932307e-001 0.000000e+000 1.161583e-001
      outer loop
         vertex 3.562887e+001 0.000000e+000 1.167969e+001
         vertex 3.562887e+001 1.000000e+001 1.167969e+001
         vertex 3.560000e+001 1.000000e+001 1.200962e+001
      endloop
   endfacet
   facet normal 9.983119e-001 0.000000e+000 5.807913e-002
      outer loop
         vertex 3.562887e+001 0.000000e+000 1.167969e+001
         vertex 3.560000e+001 1.000000e+001 1.200962e+001
         vertex 3.560000e+001 0.000000e+000 1.200962e+001
      endloop
   endfacet
   facet normal 9.983119e-001 0.000000e+000 -5.807913e-002
      outer loop
         vertex 3.560000e+001 0.000000e+000 1.200962e+001
         vertex 3.560000e+001 1.000000e+001 1.200962e+001
         vertex 3.562887e+001 1.000000e+001 1.233955e+001
      endloop
   endfacet
   facet normal 9.932307e-001 0.000000e+000 -1.161583e-001
      outer loop
         vertex 3.560000e+001 0.000000e+000 1.200962e+001
         vertex 3.562887e+001 1.000000e+001 1.233955e+001
         vertex 3.562887e+001 0.000000e+000 1.233955e+001
      endloop
   endfacet
   facet normal 9.730600e-001 0.000000e+000 -2.305519e-001
      outer loop
         vertex 3.562887e+001 0.000000e+000 1.233955e+001
         vertex 3.562887e+001 1.000000e+001 1.233955e+001
         vertex 3.571458e+001 1.000000e+001 1.265946e+001
      endloop
   endfacet
   facet normal 9.579706e-001 0.000000e+000 -2.868663e-001
      outer loop
         vertex 3.562887e+001 0.000000e+000 1.233955e+001
         vertex 3.571458e+001 1.000000e+001 1.265946e+001
         vertex 3.571458e+001 0.000000e+000 1.265946e+001
      endloop
   endfacet
   facet normal 9.182422e-001 0.000000e+000 -3.960194e-001
      outer loop
         vertex 3.571458e+001 0.000000e+000 1.265946e+001
         vertex 3.571458e+001 1.000000e+001 1.265946e+001
         vertex 3.585455e+001 1.000000e+001 1.295962e+001
      endloop
   endfacet
   facet normal 8.936031e-001 0.000000e+000 -4.488580e-001
      outer loop
         vertex 3.571458e+001 0.000000e+000 1.265946e+001
         vertex 3.585455e+001 1.000000e+001 1.295962e+001
         vertex 3.585455e+001 0.000000e+000 1.295962e+001
      endloop
   endfacet
   facet normal 8.355240e-001 0.000000e+000 -5.494540e-001
      outer loop
         vertex 3.585455e+001 0.000000e+000 1.295962e+001
         vertex 3.585455e+001 1.000000e+001 1.295962e+001
         vertex 3.604452e+001 1.000000e+001 1.323091e+001
      endloop
   endfacet
   facet normal 8.020838e-001 0.000000e+000 -5.972114e-001
      outer loop
         vertex 3.585455e+001 0.000000e+000 1.295962e+001
         vertex 3.604452e+001 1.000000e+001 1.323091e+001
         vertex 3.604452e+001 0.000000e+000 1.323091e+001
      endloop
   endfacet
   facet normal 7.274188e-001 0.000000e+000 -6.861938e-001
      outer loop
         vertex 3.604452e+001 0.000000e+000 1.323091e+001
         vertex 3.604452e+001 1.000000e+001 1.323091e+001
         vertex 3.627870e+001 1.000000e+001 1.346510e+001
      endloop
   endfacet
   facet normal 6.861938e-001 0.000000e+000 -7.274188e-001
      outer loop
         vertex 3.604452e+001 0.000000e+000 1.323091e+001
         vertex 3.627870e+001 1.000000e+001 1.346510e+001
         vertex 3.627870e+001 0.000000e+000 1.346510e+001
      endloop
   endfacet
   facet normal 5.972114e-001 0.000000e+000 -8.020838e-001
      outer loop
         vertex 3.627870e+001 0.000000e+000 1.346510e+001
         vertex 3.627870e+001 1.000000e+001 1.346510e+001
         vertex 3.655000e+001 1.000000e+001 1.365507e+001
      endloop
   endfacet
   facet normal 5.494540e-001 0.000000e+000 -8.355240e-001
      outer loop
         vertex 3.627870e+001 0.000000e+000 1.346510e+001
         vertex 3.655000e+001 1.000000e+001 1.365507e+001
         vertex 3.655000e+001 0.000000e+000 1.365507e+001
      endloop
   endfacet
   facet normal 4.488580e-001 0.000000e+000 -8.936031e-001
      outer loop
         vertex 3.655000e+001 0.000000e+000 1.365507e+001
         vertex 3.655000e+001 1.000000e+001 1.365507e+001
         vertex 3.685016e+001 1.000000e+001 1.379503e+001
      endloop
   endfacet
   facet normal 3.960194e-001 0.000000e+000 -9.182422e-001
      outer loop
         vertex 3.655000e+001 0.000000e+000 1.365507e+001
         vertex 3.685016e+001 1.000000e+001 1.379503e+001
         vertex 3.685016e+001 0.000000e+000 1.379503e+001
      endloop
   endfacet
   facet normal 2.868663e-001 0.000000e+000 -9.579706e-001
      outer loop
         vertex 3.685016e+001 0.000000e+000 1.379503e+001
         vertex 3.685016e+001 1.000000e+001 1.379503e+001
         vertex 3.717007e+001 1.000000e+001 1.388075e+001
      endloop
   endfacet
   facet normal 2.305519e-001 0.000000e+000 -9.730600e-001
      outer loop
         vertex 3.685016e+001 0.000000e+000 1.379503e+001
         vertex 3.717007e+001 1.000000e+001 1.388075e+001
         vertex 3.717007e+001 0.000000e+000 1.388075e+001
      endloop
   endfacet
   facet normal 1.161583e-001 0.000000e+000 -9.932307e-001
      outer loop
         vertex 3.717007e+001 0.000000e+000 1.388075e+001
         vertex 3.717007e+001 1.000000e+001 1.388075e+001
         vertex 3.750000e+001 1.000000e+001 1.390962e+001
      endloop
   endfacet
endsolid