solid Left Side Part
   facet normal 0.000000e+000 -1.000000e+000 0.000000e+000
      outer loop
         vertex 2.450000e+001 6.500025e+000 6.243527e+001
         vertex 1.550000e+001 6.500025e+000 6.243527e+001
         vertex 2.450000e+001 6.500025e+000 3.418527e+001
      endloop
   endfacet
   facet normal 0.000000e+000 -1.000000e+000 0.000000e+000
      outer loop
         vertex 2.450000e+001 6.500025e+000 3.418527e+001
         vertex 1.550000e+001 6.500025e+000 6.243527e+001
         vertex 1.550000e+001 6.500025e+000 3.418527e+001
      endloop
   endfacet
   facet normal 0.000000e+000 -1.000000e+000 0.000000e+000
      outer loop
         vertex 1.550000e+001 6.500025e+000 1.558848e+001
         vertex 2.450000e+001 6.500025e+000 2.607703e-005
         vertex 1.550000e+001 6.500025e+000 2.518527e+001
      endloop
   endfacet
   facet normal 0.000000e+000 -1.000000e+000 0.000000e+000
      outer loop
         vertex 1.550000e+001 6.500025e+000 2.518527e+001
         vertex 2.450000e+001 6.500025e+000 2.607703e-005
         vertex 2.450000e+001 6.500025e+000 2.518527e+001
      endloop
   endfacet
   facet normal -8.660254e-001 0.000000e+000 -5.000000e-001
      outer loop
         vertex 1.550000e+001 2.550002e+001 1.558848e+001
         vertex 2.450000e+001 2.550002e+001 2.607703e-005
         vertex 1.550000e+001 6.500025e+000 1.558848e+001
      endloop
   endfacet
   facet normal -8.660254e-001 0.000000e+000 -5.000000e-001
      outer loop
         vertex 1.550000e+001 6.500025e+000 1.558848e+001
         vertex 2.450000e+001 2.550002e+001 2.607703e-005
         vertex 2.450000e+001 6.500025e+000 2.607703e-005
      endloop
   endfacet
   facet normal -1.000000e+000 0.000000e+000 0.000000e+000
      outer loop
         vertex 1.550000e+001 1.600002e+001 5.623527e+001
         vertex 1.550000e+001 6.500025e+000 6.243527e+001
         vertex 1.550000e+001 1.657306e+001 5.618513e+001
      endloop
   endfacet
   facet normal -1.000000e+000 0.000000e+000 0.000000e+000
      outer loop
         vertex 1.550000e+001 1.657306e+001 5.618513e+001
         vertex 1.550000e+001 6.500025e+000 6.243527e+001
         vertex 1.550000e+001 2.550002e+001 6.243527e+001
      endloop
   endfacet
   facet normal -1.000000e+000 0.000000e+000 0.000000e+000
      outer loop
         vertex 1.550000e+001 2.468005e-005 2.518527e+001
         vertex 1.550000e+001 2.468005e-005 3.418527e+001
         vertex 1.550000e+001 6.500025e+000 2.518527e+001
      endloop
   endfacet
   facet normal -1.000000e+000 0.000000e+000 0.000000e+000
      outer loop
         vertex 1.550000e+001 6.500025e+000 2.518527e+001
         vertex 1.550000e+001 2.468005e-005 3.418527e+001
         vertex 1.550000e+001 6.500025e+000 3.418527e+001
      endloop
   endfacet
   facet normal -1.000000e+000 0.000000e+000 0.000000e+000
      outer loop
         vertex 1.550000e+001 1.600002e+001 5.623527e+001
         vertex 1.550000e+001 1.542699e+001 5.618513e+001
         vertex 1.550000e+001 6.500025e+000 6.243527e+001
      endloop
   endfacet
   facet normal -1.000000e+000 0.000000e+000 0.000000e+000
      outer loop
         vertex 1.550000e+001 6.500025e+000 6.243527e+001
         vertex 1.550000e+001 1.542699e+001 5.618513e+001
         vertex 1.550000e+001 1.487136e+001 5.603625e+001
      endloop
   endfacet
   facet normal -1.000000e+000 0.000000e+000 0.000000e+000
      outer loop
         vertex 1.550000e+001 6.500025e+000 6.243527e+001
         vertex 1.550000e+001 1.487136e+001 5.603625e+001
         vertex 1.550000e+001 1.435003e+001 5.579316e+001
      endloop
   endfacet
   facet normal -1.000000e+000 0.000000e+000 0.000000e+000
      outer loop
         vertex 1.550000e+001 6.500025e+000 1.558848e+001
         vertex 1.550000e+001 1.347208e+001 2.296728e+001
         vertex 1.550000e+001 1.387883e+001 2.256054e+001
      endloop
   endfacet
   facet normal -1.000000e+000 0.000000e+000 0.000000e+000
      outer loop
         vertex 1.550000e+001 6.500025e+000 1.558848e+001
         vertex 1.550000e+001 1.542699e+001 2.183862e+001
         vertex 1.550000e+001 2.550002e+001 1.558848e+001
      endloop
   endfacet
   facet normal -1.000000e+000 0.000000e+000 0.000000e+000
      outer loop
         vertex 1.550000e+001 2.550002e+001 1.558848e+001
         vertex 1.550000e+001 1.542699e+001 2.183862e+001
         vertex 1.550000e+001 1.600002e+001 2.178848e+001
      endloop
   endfacet
   facet normal -1.000000e+000 0.000000e+000 0.000000e+000
      outer loop
         vertex 1.550000e+001 2.550002e+001 1.558848e+001
         vertex 1.550000e+001 1.600002e+001 2.178848e+001
         vertex 1.550000e+001 1.657306e+001 2.183862e+001
      endloop
   endfacet
   facet normal -1.000000e+000 0.000000e+000 0.000000e+000
      outer loop
         vertex 1.550000e+001 1.314214e+001 5.458527e+001
         vertex 1.550000e+001 1.289904e+001 5.406394e+001
         vertex 1.550000e+001 6.500025e+000 6.243527e+001
      endloop
   endfacet
   facet normal -1.000000e+000 0.000000e+000 0.000000e+000
      outer loop
         vertex 1.550000e+001 1.387883e+001 2.256054e+001
         vertex 1.550000e+001 1.435003e+001 2.223060e+001
         vertex 1.550000e+001 6.500025e+000 1.558848e+001
      endloop
   endfacet
   facet normal -1.000000e+000 0.000000e+000 0.000000e+000
      outer loop
         vertex 1.550000e+001 6.500025e+000 1.558848e+001
         vertex 1.550000e+001 1.435003e+001 2.223060e+001
         vertex 1.550000e+001 1.487136e+001 2.198750e+001
      endloop
   endfacet
   facet normal -1.000000e+000 0.000000e+000 0.000000e+000
      outer loop
         vertex 1.550000e+001 6.500025e+000 1.558848e+001
         vertex 1.550000e+001 1.487136e+001 2.198750e+001
         vertex 1.550000e+001 1.542699e+001 2.183862e+001
      endloop
   endfacet
   facet normal -1.000000e+000 0.000000e+000 0.000000e+000
      outer loop
         vertex 1.550000e+001 1.657306e+001 2.183862e+001
         vertex 1.550000e+001 1.712869e+001 2.198750e+001
         vertex 1.550000e+001 2.550002e+001 1.558848e+001
      endloop
   endfacet
   facet normal -1.000000e+000 0.000000e+000 0.000000e+000
      outer loop
         vertex 1.550000e+001 2.550002e+001 1.558848e+001
         vertex 1.550000e+001 1.712869e+001 2.198750e+001
         vertex 1.550000e+001 1.765002e+001 2.223060e+001
      endloop
   endfacet
   facet normal -1.000000e+000 0.000000e+000 0.000000e+000
      outer loop
         vertex 1.550000e+001 2.550002e+001 1.558848e+001
         vertex 1.550000e+001 1.765002e+001 2.223060e+001
         vertex 1.550000e+001 1.812122e+001 2.256054e+001
      endloop
   endfacet
   facet normal -1.000000e+000 0.000000e+000 0.000000e+000
      outer loop
         vertex 1.550000e+001 1.289904e+001 5.406394e+001
         vertex 1.550000e+001 1.275016e+001 5.350831e+001
         vertex 1.550000e+001 6.500025e+000 6.243527e+001
      endloop
   endfacet
   facet normal -1.000000e+000 0.000000e+000 0.000000e+000
      outer loop
         vertex 1.550000e+001 6.500025e+000 6.243527e+001
         vertex 1.550000e+001 1.275016e+001 5.350831e+001
         vertex 1.550000e+001 1.270002e+001 5.293527e+001
      endloop
   endfacet
   facet normal -1.000000e+000 0.000000e+000 0.000000e+000
      outer loop
         vertex 1.550000e+001 6.500025e+000 6.243527e+001
         vertex 1.550000e+001 1.270002e+001 5.293527e+001
         vertex 1.550000e+001 6.500025e+000 3.418527e+001
      endloop
   endfacet
   facet normal -1.000000e+000 0.000000e+000 0.000000e+000
      outer loop
         vertex 1.550000e+001 6.500025e+000 3.418527e+001
         vertex 1.550000e+001 1.270002e+001 5.293527e+001
         vertex 1.550000e+001 1.270002e+001 2.508848e+001
      endloop
   endfacet
   facet normal -1.000000e+000 0.000000e+000 0.000000e+000
      outer loop
         vertex 1.550000e+001 6.500025e+000 3.418527e+001
         vertex 1.550000e+001 1.270002e+001 2.508848e+001
         vertex 1.550000e+001 6.500025e+000 2.518527e+001
      endloop
   endfacet
   facet normal -1.000000e+000 0.000000e+000 0.000000e+000
      outer loop
         vertex 1.550000e+001 1.270002e+001 2.508848e+001
         vertex 1.550000e+001 1.275016e+001 2.451544e+001
         vertex 1.550000e+001 6.500025e+000 2.518527e+001
      endloop
   endfacet
   facet normal -1.000000e+000 0.000000e+000 0.000000e+000
      outer loop
         vertex 1.550000e+001 6.500025e+000 2.518527e+001
         vertex 1.550000e+001 1.275016e+001 2.451544e+001
         vertex 1.550000e+001 1.289904e+001 2.395982e+001
      endloop
   endfacet
   facet normal -1.000000e+000 0.000000e+000 0.000000e+000
      outer loop
         vertex 1.550000e+001 6.500025e+000 2.518527e+001
         vertex 1.550000e+001 1.289904e+001 2.395982e+001
         vertex 1.550000e+001 6.500025e+000 1.558848e+001
      endloop
   endfacet
   facet normal -1.000000e+000 0.000000e+000 0.000000e+000
      outer loop
         vertex 1.550000e+001 6.500025e+000 1.558848e+001
         vertex 1.550000e+001 1.289904e+001 2.395982e+001
         vertex 1.550000e+001 1.314214e+001 2.343848e+001
      endloop
   endfacet
   facet normal -1.000000e+000 0.000000e+000 0.000000e+000
      outer loop
         vertex 1.550000e+001 6.500025e+000 1.558848e+001
         vertex 1.550000e+001 1.314214e+001 2.343848e+001
         vertex 1.550000e+001 1.347208e+001 2.296728e+001
      endloop
   endfacet
   facet normal -1.000000e+000 0.000000e+000 0.000000e+000
      outer loop
         vertex 1.550000e+001 1.812122e+001 2.256054e+001
         vertex 1.550000e+001 1.852797e+001 2.296728e+001
         vertex 1.550000e+001 2.550002e+001 1.558848e+001
      endloop
   endfacet
   facet normal -1.000000e+000 0.000000e+000 0.000000e+000
      outer loop
         vertex 1.550000e+001 2.550002e+001 1.558848e+001
         vertex 1.550000e+001 1.852797e+001 2.296728e+001
         vertex 1.550000e+001 1.885791e+001 2.343848e+001
      endloop
   endfacet
   facet normal -1.000000e+000 0.000000e+000 0.000000e+000
      outer loop
         vertex 1.550000e+001 2.550002e+001 1.558848e+001
         vertex 1.550000e+001 1.885791e+001 2.343848e+001
         vertex 1.550000e+001 1.910101e+001 2.395982e+001
      endloop
   endfacet
   facet normal -1.000000e+000 0.000000e+000 0.000000e+000
      outer loop
         vertex 1.550000e+001 1.435003e+001 5.579316e+001
         vertex 1.550000e+001 1.387883e+001 5.546322e+001
         vertex 1.550000e+001 6.500025e+000 6.243527e+001
      endloop
   endfacet
   facet normal -1.000000e+000 0.000000e+000 0.000000e+000
      outer loop
         vertex 1.550000e+001 6.500025e+000 6.243527e+001
         vertex 1.550000e+001 1.387883e+001 5.546322e+001
         vertex 1.550000e+001 1.347208e+001 5.505647e+001
      endloop
   endfacet
   facet normal -1.000000e+000 0.000000e+000 0.000000e+000
      outer loop
         vertex 1.550000e+001 6.500025e+000 6.243527e+001
         vertex 1.550000e+001 1.347208e+001 5.505647e+001
         vertex 1.550000e+001 1.314214e+001 5.458527e+001
      endloop
   endfacet
   facet normal -1.000000e+000 0.000000e+000 0.000000e+000
      outer loop
         vertex 1.550000e+001 2.550002e+001 6.243527e+001
         vertex 1.550000e+001 1.924989e+001 5.350831e+001
         vertex 1.550000e+001 1.910101e+001 5.406394e+001
      endloop
   endfacet
   facet normal -1.000000e+000 0.000000e+000 0.000000e+000
      outer loop
         vertex 1.550000e+001 1.910101e+001 5.406394e+001
         vertex 1.550000e+001 1.885791e+001 5.458527e+001
         vertex 1.550000e+001 2.550002e+001 6.243527e+001
      endloop
   endfacet
   facet normal -1.000000e+000 0.000000e+000 0.000000e+000
      outer loop
         vertex 1.550000e+001 2.550002e+001 6.243527e+001
         vertex 1.550000e+001 1.885791e+001 5.458527e+001
         vertex 1.550000e+001 1.852797e+001 5.505647e+001
      endloop
   endfacet
   facet normal -1.000000e+000 0.000000e+000 0.000000e+000
      outer loop
         vertex 1.550000e+001 2.550002e+001 6.243527e+001
         vertex 1.550000e+001 1.852797e+001 5.505647e+001
         vertex 1.550000e+001 1.812122e+001 5.546322e+001
      endloop
   endfacet
   facet normal -1.000000e+000 0.000000e+000 0.000000e+000
      outer loop
         vertex 1.550000e+001 1.812122e+001 5.546322e+001
         vertex 1.550000e+001 1.765002e+001 5.579316e+001
         vertex 1.550000e+001 2.550002e+001 6.243527e+001
      endloop
   endfacet
   facet normal -1.000000e+000 0.000000e+000 0.000000e+000
      outer loop
         vertex 1.550000e+001 2.550002e+001 6.243527e+001
         vertex 1.550000e+001 1.765002e+001 5.579316e+001
         vertex 1.550000e+001 1.712869e+001 5.603625e+001
      endloop
   endfacet
   facet normal -1.000000e+000 0.000000e+000 0.000000e+000
      outer loop
         vertex 1.550000e+001 2.550002e+001 6.243527e+001
         vertex 1.550000e+001 1.712869e+001 5.603625e+001
         vertex 1.550000e+001 1.657306e+001 5.618513e+001
      endloop
   endfacet
   facet normal -1.000000e+000 0.000000e+000 0.000000e+000
      outer loop
         vertex 1.550000e+001 1.910101e+001 2.395982e+001
         vertex 1.550000e+001 1.924989e+001 2.451544e+001
         vertex 1.550000e+001 2.550002e+001 1.558848e+001
      endloop
   endfacet
   facet normal -1.000000e+000 0.000000e+000 0.000000e+000
      outer loop
         vertex 1.550000e+001 2.550002e+001 1.558848e+001
         vertex 1.550000e+001 1.924989e+001 2.451544e+001
         vertex 1.550000e+001 1.930002e+001 2.508848e+001
      endloop
   endfacet
   facet normal -1.000000e+000 0.000000e+000 0.000000e+000
      outer loop
         vertex 1.550000e+001 2.550002e+001 1.558848e+001
         vertex 1.550000e+001 1.930002e+001 2.508848e+001
         vertex 1.550000e+001 2.550002e+001 6.243527e+001
      endloop
   endfacet
   facet normal -1.000000e+000 0.000000e+000 0.000000e+000
      outer loop
         vertex 1.550000e+001 2.550002e+001 6.243527e+001
         vertex 1.550000e+001 1.930002e+001 2.508848e+001
         vertex 1.550000e+001 1.930002e+001 5.293527e+001
      endloop
   endfacet
   facet normal -1.000000e+000 0.000000e+000 0.000000e+000
      outer loop
         vertex 1.550000e+001 2.550002e+001 6.243527e+001
         vertex 1.550000e+001 1.930002e+001 5.293527e+001
         vertex 1.550000e+001 1.924989e+001 5.350831e+001
      endloop
   endfacet
   facet normal 0.000000e+000 0.000000e+000 1.000000e+000
      outer loop
         vertex 2.450000e+001 2.550002e+001 6.243527e+001
         vertex 1.550000e+001 2.550002e+001 6.243527e+001
         vertex 2.450000e+001 6.500025e+000 6.243527e+001
      endloop
   endfacet
   facet normal 0.000000e+000 0.000000e+000 1.000000e+000
      outer loop
         vertex 2.450000e+001 6.500025e+000 6.243527e+001
         vertex 1.550000e+001 2.550002e+001 6.243527e+001
         vertex 1.550000e+001 6.500025e+000 6.243527e+001
      endloop
   endfacet
   facet normal 1.000000e+000 0.000000e+000 0.000000e+000
      outer loop
         vertex 2.450000e+001 1.270002e+001 5.293527e+001
         vertex 2.450000e+001 1.275016e+001 5.350831e+001
         vertex 2.450000e+001 6.500025e+000 6.243527e+001
      endloop
   endfacet
   facet normal 1.000000e+000 0.000000e+000 0.000000e+000
      outer loop
         vertex 2.450000e+001 1.812122e+001 2.256054e+001
         vertex 2.450000e+001 1.765002e+001 2.223060e+001
         vertex 2.450000e+001 2.550002e+001 2.607703e-005
      endloop
   endfacet
   facet normal 1.000000e+000 0.000000e+000 0.000000e+000
      outer loop
         vertex 2.450000e+001 2.550002e+001 2.607703e-005
         vertex 2.450000e+001 1.765002e+001 2.223060e+001
         vertex 2.450000e+001 1.712869e+001 2.198750e+001
      endloop
   endfacet
   facet normal 1.000000e+000 0.000000e+000 0.000000e+000
      outer loop
         vertex 2.450000e+001 2.468005e-005 3.418527e+001
         vertex 2.450000e+001 2.468005e-005 2.518527e+001
         vertex 2.450000e+001 6.500025e+000 3.418527e+001
      endloop
   endfacet
   facet normal 1.000000e+000 0.000000e+000 0.000000e+000
      outer loop
         vertex 2.450000e+001 6.500025e+000 3.418527e+001
         vertex 2.450000e+001 2.468005e-005 2.518527e+001
         vertex 2.450000e+001 6.500025e+000 2.518527e+001
      endloop
   endfacet
   facet normal 1.000000e+000 0.000000e+000 0.000000e+000
      outer loop
         vertex 2.450000e+001 1.712869e+001 2.198750e+001
         vertex 2.450000e+001 1.657306e+001 2.183862e+001
         vertex 2.450000e+001 2.550002e+001 2.607703e-005
      endloop
   endfacet
   facet normal 1.000000e+000 0.000000e+000 0.000000e+000
      outer loop
         vertex 2.450000e+001 2.550002e+001 2.607703e-005
         vertex 2.450000e+001 1.657306e+001 2.183862e+001
         vertex 2.450000e+001 1.600002e+001 2.178848e+001
      endloop
   endfacet
   facet normal 1.000000e+000 0.000000e+000 0.000000e+000
      outer loop
         vertex 2.450000e+001 2.550002e+001 2.607703e-005
         vertex 2.450000e+001 1.600002e+001 2.178848e+001
         vertex 2.450000e+001 6.500025e+000 2.607703e-005
      endloop
   endfacet
   facet normal 1.000000e+000 0.000000e+000 0.000000e+000
      outer loop
         vertex 2.450000e+001 6.500025e+000 2.607703e-005
         vertex 2.450000e+001 1.600002e+001 2.178848e+001
         vertex 2.450000e+001 1.542699e+001 2.183862e+001
      endloop
   endfacet
   facet normal 1.000000e+000 0.000000e+000 0.000000e+000
      outer loop
         vertex 2.450000e+001 1.542699e+001 2.183862e+001
         vertex 2.450000e+001 1.487136e+001 2.198750e+001
         vertex 2.450000e+001 6.500025e+000 2.607703e-005
      endloop
   endfacet
   facet normal 1.000000e+000 0.000000e+000 0.000000e+000
      outer loop
         vertex 2.450000e+001 6.500025e+000 2.607703e-005
         vertex 2.450000e+001 1.487136e+001 2.198750e+001
         vertex 2.450000e+001 1.435003e+001 2.223060e+001
      endloop
   endfacet
   facet normal 1.000000e+000 0.000000e+000 0.000000e+000
      outer loop
         vertex 2.450000e+001 6.500025e+000 2.607703e-005
         vertex 2.450000e+001 1.435003e+001 2.223060e+001
         vertex 2.450000e+001 1.387883e+001 2.256054e+001
      endloop
   endfacet
   facet normal 1.000000e+000 0.000000e+000 0.000000e+000
      outer loop
         vertex 2.450000e+001 1.275016e+001 5.350831e+001
         vertex 2.450000e+001 1.289904e+001 5.406394e+001
         vertex 2.450000e+001 6.500025e+000 6.243527e+001
      endloop
   endfacet
   facet normal 1.000000e+000 0.000000e+000 0.000000e+000
      outer loop
         vertex 2.450000e+001 6.500025e+000 6.243527e+001
         vertex 2.450000e+001 1.289904e+001 5.406394e+001
         vertex 2.450000e+001 1.314214e+001 5.458527e+001
      endloop
   endfacet
   facet normal 1.000000e+000 0.000000e+000 0.000000e+000
      outer loop
         vertex 2.450000e+001 6.500025e+000 6.243527e+001
         vertex 2.450000e+001 1.314214e+001 5.458527e+001
         vertex 2.450000e+001 1.347208e+001 5.505647e+001
      endloop
   endfacet
   facet normal 1.000000e+000 0.000000e+000 0.000000e+000
      outer loop
         vertex 2.450000e+001 1.347208e+001 5.505647e+001
         vertex 2.450000e+001 1.387883e+001 5.546322e+001
         vertex 2.450000e+001 6.500025e+000 6.243527e+001
      endloop
   endfacet
   facet normal 1.000000e+000 0.000000e+000 0.000000e+000
      outer loop
         vertex 2.450000e+001 6.500025e+000 6.243527e+001
         vertex 2.450000e+001 1.387883e+001 5.546322e+001
         vertex 2.450000e+001 1.435003e+001 5.579316e+001
      endloop
   endfacet
   facet normal 1.000000e+000 0.000000e+000 0.000000e+000
      outer loop
         vertex 2.450000e+001 6.500025e+000 6.243527e+001
         vertex 2.450000e+001 1.435003e+001 5.579316e+001
         vertex 2.450000e+001 1.487136e+001 5.603625e+001
      endloop
   endfacet
   facet normal 1.000000e+000 0.000000e+000 0.000000e+000
      outer loop
         vertex 2.450000e+001 1.712869e+001 5.603625e+001
         vertex 2.450000e+001 1.765002e+001 5.579316e+001
         vertex 2.450000e+001 2.550002e+001 6.243527e+001
      endloop
   endfacet
   facet normal 1.000000e+000 0.000000e+000 0.000000e+000
      outer loop
         vertex 2.450000e+001 2.550002e+001 6.243527e+001
         vertex 2.450000e+001 1.765002e+001 5.579316e+001
         vertex 2.450000e+001 1.812122e+001 5.546322e+001
      endloop
   endfacet
   facet normal 1.000000e+000 0.000000e+000 0.000000e+000
      outer loop
         vertex 2.450000e+001 2.550002e+001 6.243527e+001
         vertex 2.450000e+001 1.812122e+001 5.546322e+001
         vertex 2.450000e+001 1.852797e+001 5.505647e+001
      endloop
   endfacet
   facet normal 1.000000e+000 0.000000e+000 0.000000e+000
      outer loop
         vertex 2.450000e+001 6.500025e+000 6.243527e+001
         vertex 2.450000e+001 6.500025e+000 3.418527e+001
         vertex 2.450000e+001 1.270002e+001 5.293527e+001
      endloop
   endfacet
   facet normal 1.000000e+000 0.000000e+000 0.000000e+000
      outer loop
         vertex 2.450000e+001 1.270002e+001 5.293527e+001
         vertex 2.450000e+001 6.500025e+000 3.418527e+001
         vertex 2.450000e+001 6.500025e+000 2.518527e+001
      endloop
   endfacet
   facet normal 1.000000e+000 0.000000e+000 0.000000e+000
      outer loop
         vertex 2.450000e+001 1.270002e+001 5.293527e+001
         vertex 2.450000e+001 6.500025e+000 2.518527e+001
         vertex 2.450000e+001 1.270002e+001 2.508848e+001
      endloop
   endfacet
   facet normal 1.000000e+000 0.000000e+000 0.000000e+000
      outer loop
         vertex 2.450000e+001 1.270002e+001 2.508848e+001
         vertex 2.450000e+001 6.500025e+000 2.518527e+001
         vertex 2.450000e+001 1.275016e+001 2.451544e+001
      endloop
   endfacet
   facet normal 1.000000e+000 0.000000e+000 0.000000e+000
      outer loop
         vertex 2.450000e+001 1.487136e+001 5.603625e+001
         vertex 2.450000e+001 1.542699e+001 5.618513e+001
         vertex 2.450000e+001 6.500025e+000 6.243527e+001
      endloop
   endfacet
   facet normal 1.000000e+000 0.000000e+000 0.000000e+000
      outer loop
         vertex 2.450000e+001 6.500025e+000 6.243527e+001
         vertex 2.450000e+001 1.542699e+001 5.618513e+001
         vertex 2.450000e+001 1.600002e+001 5.623527e+001
      endloop
   endfacet
   facet normal 1.000000e+000 0.000000e+000 0.000000e+000
      outer loop
         vertex 2.450000e+001 6.500025e+000 6.243527e+001
         vertex 2.450000e+001 1.600002e+001 5.623527e+001
         vertex 2.450000e+001 2.550002e+001 6.243527e+001
      endloop
   endfacet
   facet normal 1.000000e+000 0.000000e+000 0.000000e+000
      outer loop
         vertex 2.450000e+001 2.550002e+001 6.243527e+001
         vertex 2.450000e+001 1.600002e+001 5.623527e+001
         vertex 2.450000e+001 1.657306e+001 5.618513e+001
      endloop
   endfacet
   facet normal 1.000000e+000 0.000000e+000 0.000000e+000
      outer loop
         vertex 2.450000e+001 2.550002e+001 6.243527e+001
         vertex 2.450000e+001 1.657306e+001 5.618513e+001
         vertex 2.450000e+001 1.712869e+001 5.603625e+001
      endloop
   endfacet
   facet normal 1.000000e+000 0.000000e+000 0.000000e+000
      outer loop
         vertex 2.450000e+001 1.852797e+001 5.505647e+001
         vertex 2.450000e+001 1.885791e+001 5.458527e+001
         vertex 2.450000e+001 2.550002e+001 6.243527e+001
      endloop
   endfacet
   facet normal 1.000000e+000 0.000000e+000 0.000000e+000
      outer loop
         vertex 2.450000e+001 2.550002e+001 6.243527e+001
         vertex 2.450000e+001 1.885791e+001 5.458527e+001
         vertex 2.450000e+001 1.910101e+001 5.406394e+001
      endloop
   endfacet
   facet normal 1.000000e+000 0.000000e+000 0.000000e+000
      outer loop
         vertex 2.450000e+001 2.550002e+001 6.243527e+001
         vertex 2.450000e+001 1.910101e+001 5.406394e+001
         vertex 2.450000e+001 1.924989e+001 5.350831e+001
      endloop
   endfacet
   facet normal 1.000000e+000 0.000000e+000 0.000000e+000
      outer loop
         vertex 2.450000e+001 1.910101e+001 2.395982e+001
         vertex 2.450000e+001 1.885791e+001 2.343848e+001
         vertex 2.450000e+001 2.550002e+001 2.607703e-005
      endloop
   endfacet
   facet normal 1.000000e+000 0.000000e+000 0.000000e+000
      outer loop
         vertex 2.450000e+001 2.550002e+001 2.607703e-005
         vertex 2.450000e+001 1.885791e+001 2.343848e+001
         vertex 2.450000e+001 1.852797e+001 2.296728e+001
      endloop
   endfacet
   facet normal 1.000000e+000 0.000000e+000 0.000000e+000
      outer loop
         vertex 2.450000e+001 2.550002e+001 2.607703e-005
         vertex 2.450000e+001 1.852797e+001 2.296728e+001
         vertex 2.450000e+001 1.812122e+001 2.256054e+001
      endloop
   endfacet
   facet normal 1.000000e+000 0.000000e+000 0.000000e+000
      outer loop
         vertex 2.450000e+001 1.924989e+001 5.350831e+001
         vertex 2.450000e+001 1.930002e+001 5.293527e+001
         vertex 2.450000e+001 2.550002e+001 6.243527e+001
      endloop
   endfacet
   facet normal 1.000000e+000 0.000000e+000 0.000000e+000
      outer loop
         vertex 2.450000e+001 2.550002e+001 6.243527e+001
         vertex 2.450000e+001 1.930002e+001 5.293527e+001
         vertex 2.450000e+001 1.930002e+001 2.508848e+001
      endloop
   endfacet
   facet normal 1.000000e+000 0.000000e+000 0.000000e+000
      outer loop
         vertex 2.450000e+001 2.550002e+001 6.243527e+001
         vertex 2.450000e+001 1.930002e+001 2.508848e+001
         vertex 2.450000e+001 2.550002e+001 2.607703e-005
      endloop
   endfacet
   facet normal 1.000000e+000 0.000000e+000 0.000000e+000
      outer loop
         vertex 2.450000e+001 2.550002e+001 2.607703e-005
         vertex 2.450000e+001 1.930002e+001 2.508848e+001
         vertex 2.450000e+001 1.924989e+001 2.451544e+001
      endloop
   endfacet
   facet normal 1.000000e+000 0.000000e+000 0.000000e+000
      outer loop
         vertex 2.450000e+001 2.550002e+001 2.607703e-005
         vertex 2.450000e+001 1.924989e+001 2.451544e+001
         vertex 2.450000e+001 1.910101e+001 2.395982e+001
      endloop
   endfacet
   facet normal 1.000000e+000 0.000000e+000 0.000000e+000
      outer loop
         vertex 2.450000e+001 1.387883e+001 2.256054e+001
         vertex 2.450000e+001 1.347208e+001 2.296728e+001
         vertex 2.450000e+001 6.500025e+000 2.607703e-005
      endloop
   endfacet
   facet normal 1.000000e+000 0.000000e+000 0.000000e+000
      outer loop
         vertex 2.450000e+001 6.500025e+000 2.607703e-005
         vertex 2.450000e+001 1.347208e+001 2.296728e+001
         vertex 2.450000e+001 1.314214e+001 2.343848e+001
      endloop
   endfacet
   facet normal 1.000000e+000 0.000000e+000 0.000000e+000
      outer loop
         vertex 2.450000e+001 6.500025e+000 2.607703e-005
         vertex 2.450000e+001 1.314214e+001 2.343848e+001
         vertex 2.450000e+001 6.500025e+000 2.518527e+001
      endloop
   endfacet
   facet normal 1.000000e+000 0.000000e+000 0.000000e+000
      outer loop
         vertex 2.450000e+001 6.500025e+000 2.518527e+001
         vertex 2.450000e+001 1.314214e+001 2.343848e+001
         vertex 2.450000e+001 1.289904e+001 2.395982e+001
      endloop
   endfacet
   facet normal 1.000000e+000 0.000000e+000 0.000000e+000
      outer loop
         vertex 2.450000e+001 6.500025e+000 2.518527e+001
         vertex 2.450000e+001 1.289904e+001 2.395982e+001
         vertex 2.450000e+001 1.275016e+001 2.451544e+001
      endloop
   endfacet
   facet normal 0.000000e+000 1.000000e+000 0.000000e+000
      outer loop
         vertex 1.550000e+001 2.550002e+001 6.243527e+001
         vertex 2.450000e+001 2.550002e+001 6.243527e+001
         vertex 1.550000e+001 2.550002e+001 1.558848e+001
      endloop
   endfacet
   facet normal 0.000000e+000 1.000000e+000 0.000000e+000
      outer loop
         vertex 1.550000e+001 2.550002e+001 1.558848e+001
         vertex 2.450000e+001 2.550002e+001 6.243527e+001
         vertex 2.450000e+001 2.550002e+001 2.607703e-005
      endloop
   endfacet
   facet normal 0.000000e+000 -9.983119e-001 5.807913e-002
      outer loop
         vertex 2.450000e+001 1.930002e+001 2.508848e+001
         vertex 1.550000e+001 1.930002e+001 2.508848e+001
         vertex 1.550000e+001 1.924989e+001 2.451544e+001
      endloop
   endfacet
   facet normal 0.000000e+000 -9.932307e-001 1.161583e-001
      outer loop
         vertex 2.450000e+001 1.930002e+001 2.508848e+001
         vertex 1.550000e+001 1.924989e+001 2.451544e+001
         vertex 2.450000e+001 1.924989e+001 2.451544e+001
      endloop
   endfacet
   facet normal 0.000000e+000 -9.730600e-001 2.305519e-001
      outer loop
         vertex 2.450000e+001 1.924989e+001 2.451544e+001
         vertex 1.550000e+001 1.924989e+001 2.451544e+001
         vertex 1.550000e+001 1.910101e+001 2.395982e+001
      endloop
   endfacet
   facet normal 0.000000e+000 -9.579706e-001 2.868663e-001
      outer loop
         vertex 2.450000e+001 1.924989e+001 2.451544e+001
         vertex 1.550000e+001 1.910101e+001 2.395982e+001
         vertex 2.450000e+001 1.910101e+001 2.395982e+001
      endloop
   endfacet
   facet normal 0.000000e+000 -9.182422e-001 3.960194e-001
      outer loop
         vertex 2.450000e+001 1.910101e+001 2.395982e+001
         vertex 1.550000e+001 1.910101e+001 2.395982e+001
         vertex 1.550000e+001 1.885791e+001 2.343848e+001
      endloop
   endfacet
   facet normal 0.000000e+000 -8.936031e-001 4.488580e-001
      outer loop
         vertex 2.450000e+001 1.910101e+001 2.395982e+001
         vertex 1.550000e+001 1.885791e+001 2.343848e+001
         vertex 2.450000e+001 1.885791e+001 2.343848e+001
      endloop
   endfacet
   facet normal 0.000000e+000 -8.355240e-001 5.494540e-001
      outer loop
         vertex 2.450000e+001 1.885791e+001 2.343848e+001
         vertex 1.550000e+001 1.885791e+001 2.343848e+001
         vertex 1.550000e+001 1.852797e+001 2.296728e+001
      endloop
   endfacet
   facet normal 0.000000e+000 -8.020838e-001 5.972114e-001
      outer loop
         vertex 2.450000e+001 1.885791e+001 2.343848e+001
         vertex 1.550000e+001 1.852797e+001 2.296728e+001
         vertex 2.450000e+001 1.852797e+001 2.296728e+001
      endloop
   endfacet
   facet normal 0.000000e+000 -7.274188e-001 6.861938e-001
      outer loop
         vertex 2.450000e+001 1.852797e+001 2.296728e+001
         vertex 1.550000e+001 1.852797e+001 2.296728e+001
         vertex 1.550000e+001 1.812122e+001 2.256054e+001
      endloop
   endfacet
   facet normal 0.000000e+000 -6.861938e-001 7.274188e-001
      outer loop
         vertex 2.450000e+001 1.852797e+001 2.296728e+001
         vertex 1.550000e+001 1.812122e+001 2.256054e+001
         vertex 2.450000e+001 1.812122e+001 2.256054e+001
      endloop
   endfacet
   facet normal 0.000000e+000 -5.972114e-001 8.020838e-001
      outer loop
         vertex 2.450000e+001 1.812122e+001 2.256054e+001
         vertex 1.550000e+001 1.812122e+001 2.256054e+001
         vertex 1.550000e+001 1.765002e+001 2.223060e+001
      endloop
   endfacet
   facet normal 0.000000e+000 -5.494540e-001 8.355240e-001
      outer loop
         vertex 2.450000e+001 1.812122e+001 2.256054e+001
         vertex 1.550000e+001 1.765002e+001 2.223060e+001
         vertex 2.450000e+001 1.765002e+001 2.223060e+001
      endloop
   endfacet
   facet normal 0.000000e+000 -4.488580e-001 8.936031e-001
      outer loop
         vertex 2.450000e+001 1.765002e+001 2.223060e+001
         vertex 1.550000e+001 1.765002e+001 2.223060e+001
         vertex 1.550000e+001 1.712869e+001 2.198750e+001
      endloop
   endfacet
   facet normal 0.000000e+000 -3.960194e-001 9.182422e-001
      outer loop
         vertex 2.450000e+001 1.765002e+001 2.223060e+001
         vertex 1.550000e+001 1.712869e+001 2.198750e+001
         vertex 2.450000e+001 1.712869e+001 2.198750e+001
      endloop
   endfacet
   facet normal 0.000000e+000 -2.868663e-001 9.579706e-001
      outer loop
         vertex 2.450000e+001 1.712869e+001 2.198750e+001
         vertex 1.550000e+001 1.712869e+001 2.198750e+001
         vertex 1.550000e+001 1.657306e+001 2.183862e+001
      endloop
   endfacet
   facet normal 0.000000e+000 -2.305519e-001 9.730600e-001
      outer loop
         vertex 2.450000e+001 1.712869e+001 2.198750e+001
         vertex 1.550000e+001 1.657306e+001 2.183862e+001
         vertex 2.450000e+001 1.657306e+001 2.183862e+001
      endloop
   endfacet
   facet normal 0.000000e+000 -1.161583e-001 9.932307e-001
      outer loop
         vertex 2.450000e+001 1.657306e+001 2.183862e+001
         vertex 1.550000e+001 1.657306e+001 2.183862e+001
         vertex 1.550000e+001 1.600002e+001 2.178848e+001
      endloop
   endfacet
   facet normal 0.000000e+000 -5.807913e-002 9.983119e-001
      outer loop
         vertex 2.450000e+001 1.657306e+001 2.183862e+001
         vertex 1.550000e+001 1.600002e+001 2.178848e+001
         vertex 2.450000e+001 1.600002e+001 2.178848e+001
      endloop
   endfacet
   facet normal 0.000000e+000 5.807913e-002 9.983119e-001
      outer loop
         vertex 2.450000e+001 1.600002e+001 2.178848e+001
         vertex 1.550000e+001 1.600002e+001 2.178848e+001
         vertex 1.550000e+001 1.542699e+001 2.183862e+001
      endloop
   endfacet
   facet normal 0.000000e+000 1.161583e-001 9.932307e-001
      outer loop
         vertex 2.450000e+001 1.600002e+001 2.178848e+001
         vertex 1.550000e+001 1.542699e+001 2.183862e+001
         vertex 2.450000e+001 1.542699e+001 2.183862e+001
      endloop
   endfacet
   facet normal 0.000000e+000 2.305519e-001 9.730600e-001
      outer loop
         vertex 2.450000e+001 1.542699e+001 2.183862e+001
         vertex 1.550000e+001 1.542699e+001 2.183862e+001
         vertex 1.550000e+001 1.487136e+001 2.198750e+001
      endloop
   endfacet
   facet normal 0.000000e+000 2.868663e-001 9.579706e-001
      outer loop
         vertex 2.450000e+001 1.542699e+001 2.183862e+001
         vertex 1.550000e+001 1.487136e+001 2.198750e+001
         vertex 2.450000e+001 1.487136e+001 2.198750e+001
      endloop
   endfacet
   facet normal 0.000000e+000 3.960194e-001 9.182422e-001
      outer loop
         vertex 2.450000e+001 1.487136e+001 2.198750e+001
         vertex 1.550000e+001 1.487136e+001 2.198750e+001
         vertex 1.550000e+001 1.435003e+001 2.223060e+001
      endloop
   endfacet
   facet normal 0.000000e+000 4.488580e-001 8.936031e-001
      outer loop
         vertex 2.450000e+001 1.487136e+001 2.198750e+001
         vertex 1.550000e+001 1.435003e+001 2.223060e+001
         vertex 2.450000e+001 1.435003e+001 2.223060e+001
      endloop
   endfacet
   facet normal 0.000000e+000 5.494540e-001 8.355240e-001
      outer loop
         vertex 2.450000e+001 1.435003e+001 2.223060e+001
         vertex 1.550000e+001 1.435003e+001 2.223060e+001
         vertex 1.550000e+001 1.387883e+001 2.256054e+001
      endloop
   endfacet
   facet normal 0.000000e+000 5.972114e-001 8.020838e-001
      outer loop
         vertex 2.450000e+001 1.435003e+001 2.223060e+001
         vertex 1.550000e+001 1.387883e+001 2.256054e+001
         vertex 2.450000e+001 1.387883e+001 2.256054e+001
      endloop
   endfacet
   facet normal 0.000000e+000 6.861938e-001 7.274188e-001
      outer loop
         vertex 2.450000e+001 1.387883e+001 2.256054e+001
         vertex 1.550000e+001 1.387883e+001 2.256054e+001
         vertex 1.550000e+001 1.347208e+001 2.296728e+001
      endloop
   endfacet
   facet normal 0.000000e+000 7.274188e-001 6.861938e-001
      outer loop
         vertex 2.450000e+001 1.387883e+001 2.256054e+001
         vertex 1.550000e+001 1.347208e+001 2.296728e+001
         vertex 2.450000e+001 1.347208e+001 2.296728e+001
      endloop
   endfacet
   facet normal 0.000000e+000 8.020838e-001 5.972114e-001
      outer loop
         vertex 2.450000e+001 1.347208e+001 2.296728e+001
         vertex 1.550000e+001 1.347208e+001 2.296728e+001
         vertex 1.550000e+001 1.314214e+001 2.343848e+001
      endloop
   endfacet
   facet normal 0.000000e+000 8.355240e-001 5.494540e-001
      outer loop
         vertex 2.450000e+001 1.347208e+001 2.296728e+001
         vertex 1.550000e+001 1.314214e+001 2.343848e+001
         vertex 2.450000e+001 1.314214e+001 2.343848e+001
      endloop
   endfacet
   facet normal 0.000000e+000 8.936031e-001 4.488580e-001
      outer loop
         vertex 2.450000e+001 1.314214e+001 2.343848e+001
         vertex 1.550000e+001 1.314214e+001 2.343848e+001
         vertex 1.550000e+001 1.289904e+001 2.395982e+001
      endloop
   endfacet
   facet normal 0.000000e+000 9.182422e-001 3.960194e-001
      outer loop
         vertex 2.450000e+001 1.314214e+001 2.343848e+001
         vertex 1.550000e+001 1.289904e+001 2.395982e+001
         vertex 2.450000e+001 1.289904e+001 2.395982e+001
      endloop
   endfacet
   facet normal 0.000000e+000 9.579706e-001 2.868663e-001
      outer loop
         vertex 2.450000e+001 1.289904e+001 2.395982e+001
         vertex 1.550000e+001 1.289904e+001 2.395982e+001
         vertex 1.550000e+001 1.275016e+001 2.451544e+001
      endloop
   endfacet
   facet normal 0.000000e+000 9.730600e-001 2.305519e-001
      outer loop
         vertex 2.450000e+001 1.289904e+001 2.395982e+001
         vertex 1.550000e+001 1.275016e+001 2.451544e+001
         vertex 2.450000e+001 1.275016e+001 2.451544e+001
      endloop
   endfacet
   facet normal 0.000000e+000 9.932307e-001 1.161583e-001
      outer loop
         vertex 2.450000e+001 1.275016e+001 2.451544e+001
         vertex 1.550000e+001 1.275016e+001 2.451544e+001
         vertex 1.550000e+001 1.270002e+001 2.508848e+001
      endloop
   endfacet
   facet normal 0.000000e+000 9.983119e-001 5.807913e-002
      outer loop
         vertex 2.450000e+001 1.275016e+001 2.451544e+001
         vertex 1.550000e+001 1.270002e+001 2.508848e+001
         vertex 2.450000e+001 1.270002e+001 2.508848e+001
      endloop
   endfacet
   facet normal 0.000000e+000 -1.000000e+000 0.000000e+000
      outer loop
         vertex 2.450000e+001 1.930002e+001 2.508848e+001
         vertex 2.450000e+001 1.930002e+001 5.293527e+001
         vertex 1.550000e+001 1.930002e+001 2.508848e+001
      endloop
   endfacet
   facet normal 0.000000e+000 -1.000000e+000 0.000000e+000
      outer loop
         vertex 1.550000e+001 1.930002e+001 2.508848e+001
         vertex 2.450000e+001 1.930002e+001 5.293527e+001
         vertex 1.550000e+001 1.930002e+001 5.293527e+001
      endloop
   endfacet
   facet normal 0.000000e+000 9.983119e-001 -5.807913e-002
      outer loop
         vertex 2.450000e+001 1.270002e+001 5.293527e+001
         vertex 1.550000e+001 1.270002e+001 5.293527e+001
         vertex 1.550000e+001 1.275016e+001 5.350831e+001
      endloop
   endfacet
   facet normal 0.000000e+000 9.932307e-001 -1.161583e-001
      outer loop
         vertex 2.450000e+001 1.270002e+001 5.293527e+001
         vertex 1.550000e+001 1.275016e+001 5.350831e+001
         vertex 2.450000e+001 1.275016e+001 5.350831e+001
      endloop
   endfacet
   facet normal 0.000000e+000 9.730600e-001 -2.305519e-001
      outer loop
         vertex 2.450000e+001 1.275016e+001 5.350831e+001
         vertex 1.550000e+001 1.275016e+001 5.350831e+001
         vertex 1.550000e+001 1.289904e+001 5.406394e+001
      endloop
   endfacet
   facet normal 0.000000e+000 9.579706e-001 -2.868663e-001
      outer loop
         vertex 2.450000e+001 1.275016e+001 5.350831e+001
         vertex 1.550000e+001 1.289904e+001 5.406394e+001
         vertex 2.450000e+001 1.289904e+001 5.406394e+001
      endloop
   endfacet
   facet normal 0.000000e+000 9.182422e-001 -3.960194e-001
      outer loop
         vertex 2.450000e+001 1.289904e+001 5.406394e+001
         vertex 1.550000e+001 1.289904e+001 5.406394e+001
         vertex 1.550000e+001 1.314214e+001 5.458527e+001
      endloop
   endfacet
   facet normal 0.000000e+000 8.936031e-001 -4.488580e-001
      outer loop
         vertex 2.450000e+001 1.289904e+001 5.406394e+001
         vertex 1.550000e+001 1.314214e+001 5.458527e+001
         vertex 2.450000e+001 1.314214e+001 5.458527e+001
      endloop
   endfacet
   facet normal 0.000000e+000 8.355240e-001 -5.494540e-001
      outer loop
         vertex 2.450000e+001 1.314214e+001 5.458527e+001
         vertex 1.550000e+001 1.314214e+001 5.458527e+001
         vertex 1.550000e+001 1.347208e+001 5.505647e+001
      endloop
   endfacet
   facet normal 0.000000e+000 8.020838e-001 -5.972114e-001
      outer loop
         vertex 2.450000e+001 1.314214e+001 5.458527e+001
         vertex 1.550000e+001 1.347208e+001 5.505647e+001
         vertex 2.450000e+001 1.347208e+001 5.505647e+001
      endloop
   endfacet
   facet normal 0.000000e+000 7.274188e-001 -6.861938e-001
      outer loop
         vertex 2.450000e+001 1.347208e+001 5.505647e+001
         vertex 1.550000e+001 1.347208e+001 5.505647e+001
         vertex 1.550000e+001 1.387883e+001 5.546322e+001
      endloop
   endfacet
   facet normal 0.000000e+000 6.861938e-001 -7.274188e-001
      outer loop
         vertex 2.450000e+001 1.347208e+001 5.505647e+001
         vertex 1.550000e+001 1.387883e+001 5.546322e+001
         vertex 2.450000e+001 1.387883e+001 5.546322e+001
      endloop
   endfacet
   facet normal 0.000000e+000 5.972114e-001 -8.020838e-001
      outer loop
         vertex 2.450000e+001 1.387883e+001 5.546322e+001
         vertex 1.550000e+001 1.387883e+001 5.546322e+001
         vertex 1.550000e+001 1.435003e+001 5.579316e+001
      endloop
   endfacet
   facet normal 0.000000e+000 5.494540e-001 -8.355240e-001
      outer loop
         vertex 2.450000e+001 1.387883e+001 5.546322e+001
         vertex 1.550000e+001 1.435003e+001 5.579316e+001
         vertex 2.450000e+001 1.435003e+001 5.579316e+001
      endloop
   endfacet
   facet normal 0.000000e+000 4.488580e-001 -8.936031e-001
      outer loop
         vertex 2.450000e+001 1.435003e+001 5.579316e+001
         vertex 1.550000e+001 1.435003e+001 5.579316e+001
         vertex 1.550000e+001 1.487136e+001 5.603625e+001
      endloop
   endfacet
   facet normal 0.000000e+000 3.960194e-001 -9.182422e-001
      outer loop
         vertex 2.450000e+001 1.435003e+001 5.579316e+001
         vertex 1.550000e+001 1.487136e+001 5.603625e+001
         vertex 2.450000e+001 1.487136e+001 5.603625e+001
      endloop
   endfacet
   facet normal 0.000000e+000 2.868663e-001 -9.579706e-001
      outer loop
         vertex 2.450000e+001 1.487136e+001 5.603625e+001
         vertex 1.550000e+001 1.487136e+001 5.603625e+001
         vertex 1.550000e+001 1.542699e+001 5.618513e+001
      endloop
   endfacet
   facet normal 0.000000e+000 2.305519e-001 -9.730600e-001
      outer loop
         vertex 2.450000e+001 1.487136e+001 5.603625e+001
         vertex 1.550000e+001 1.542699e+001 5.618513e+001
         vertex 2.450000e+001 1.542699e+001 5.618513e+001
      endloop
   endfacet
   facet normal 0.000000e+000 1.161583e-001 -9.932307e-001
      outer loop
         vertex 2.450000e+001 1.542699e+001 5.618513e+001
         vertex 1.550000e+001 1.542699e+001 5.618513e+001
         vertex 1.550000e+001 1.600002e+001 5.623527e+001
      endloop
   endfacet
   facet normal 0.000000e+000 5.807913e-002 -9.983119e-001
      outer loop
         vertex 2.450000e+001 1.542699e+001 5.618513e+001
         vertex 1.550000e+001 1.600002e+001 5.623527e+001
         vertex 2.450000e+001 1.600002e+001 5.623527e+001
      endloop
   endfacet
   facet normal 0.000000e+000 -5.807913e-002 -9.983119e-001
      outer loop
         vertex 2.450000e+001 1.600002e+001 5.623527e+001
         vertex 1.550000e+001 1.600002e+001 5.623527e+001
         vertex 1.550000e+001 1.657306e+001 5.618513e+001
      endloop
   endfacet
   facet normal 0.000000e+000 -1.161583e-001 -9.932307e-001
      outer loop
         vertex 2.450000e+001 1.600002e+001 5.623527e+001
         vertex 1.550000e+001 1.657306e+001 5.618513e+001
         vertex 2.450000e+001 1.657306e+001 5.618513e+001
      endloop
   endfacet
   facet normal 0.000000e+000 -2.305519e-001 -9.730600e-001
      outer loop
         vertex 2.450000e+001 1.657306e+001 5.618513e+001
         vertex 1.550000e+001 1.657306e+001 5.618513e+001
         vertex 1.550000e+001 1.712869e+001 5.603625e+001
      endloop
   endfacet
   facet normal 0.000000e+000 -2.868663e-001 -9.579706e-001
      outer loop
         vertex 2.450000e+001 1.657306e+001 5.618513e+001
         vertex 1.550000e+001 1.712869e+001 5.603625e+001
         vertex 2.450000e+001 1.712869e+001 5.603625e+001
      endloop
   endfacet
   facet normal 0.000000e+000 -3.960194e-001 -9.182422e-001
      outer loop
         vertex 2.450000e+001 1.712869e+001 5.603625e+001
         vertex 1.550000e+001 1.712869e+001 5.603625e+001
         vertex 1.550000e+001 1.765002e+001 5.579316e+001
      endloop
   endfacet
   facet normal 0.000000e+000 -4.488580e-001 -8.936031e-001
      outer loop
         vertex 2.450000e+001 1.712869e+001 5.603625e+001
         vertex 1.550000e+001 1.765002e+001 5.579316e+001
         vertex 2.450000e+001 1.765002e+001 5.579316e+001
      endloop
   endfacet
   facet normal 0.000000e+000 -5.494540e-001 -8.355240e-001
      outer loop
         vertex 2.450000e+001 1.765002e+001 5.579316e+001
         vertex 1.550000e+001 1.765002e+001 5.579316e+001
         vertex 1.550000e+001 1.812122e+001 5.546322e+001
      endloop
   endfacet
   facet normal 0.000000e+000 -5.972114e-001 -8.020838e-001
      outer loop
         vertex 2.450000e+001 1.765002e+001 5.579316e+001
         vertex 1.550000e+001 1.812122e+001 5.546322e+001
         vertex 2.450000e+001 1.812122e+001 5.546322e+001
      endloop
   endfacet
   facet normal 0.000000e+000 -6.861938e-001 -7.274188e-001
      outer loop
         vertex 2.450000e+001 1.812122e+001 5.546322e+001
         vertex 1.550000e+001 1.812122e+001 5.546322e+001
         vertex 1.550000e+001 1.852797e+001 5.505647e+001
      endloop
   endfacet
   facet normal 0.000000e+000 -7.274188e-001 -6.861938e-001
      outer loop
         vertex 2.450000e+001 1.812122e+001 5.546322e+001
         vertex 1.550000e+001 1.852797e+001 5.505647e+001
         vertex 2.450000e+001 1.852797e+001 5.505647e+001
      endloop
   endfacet
   facet normal 0.000000e+000 -8.020838e-001 -5.972114e-001
      outer loop
         vertex 2.450000e+001 1.852797e+001 5.505647e+001
         vertex 1.550000e+001 1.852797e+001 5.505647e+001
         vertex 1.550000e+001 1.885791e+001 5.458527e+001
      endloop
   endfacet
   facet normal 0.000000e+000 -8.355240e-001 -5.494540e-001
      outer loop
         vertex 2.450000e+001 1.852797e+001 5.505647e+001
         vertex 1.550000e+001 1.885791e+001 5.458527e+001
         vertex 2.450000e+001 1.885791e+001 5.458527e+001
      endloop
   endfacet
   facet normal 0.000000e+000 -8.936031e-001 -4.488580e-001
      outer loop
         vertex 2.450000e+001 1.885791e+001 5.458527e+001
         vertex 1.550000e+001 1.885791e+001 5.458527e+001
         vertex 1.550000e+001 1.910101e+001 5.406394e+001
      endloop
   endfacet
   facet normal 0.000000e+000 -9.182422e-001 -3.960194e-001
      outer loop
         vertex 2.450000e+001 1.885791e+001 5.458527e+001
         vertex 1.550000e+001 1.910101e+001 5.406394e+001
         vertex 2.450000e+001 1.910101e+001 5.406394e+001
      endloop
   endfacet
   facet normal 0.000000e+000 -9.579706e-001 -2.868663e-001
      outer loop
         vertex 2.450000e+001 1.910101e+001 5.406394e+001
         vertex 1.550000e+001 1.910101e+001 5.406394e+001
         vertex 1.550000e+001 1.924989e+001 5.350831e+001
      endloop
   endfacet
   facet normal 0.000000e+000 -9.730600e-001 -2.305519e-001
      outer loop
         vertex 2.450000e+001 1.910101e+001 5.406394e+001
         vertex 1.550000e+001 1.924989e+001 5.350831e+001
         vertex 2.450000e+001 1.924989e+001 5.350831e+001
      endloop
   endfacet
   facet normal 0.000000e+000 -9.932307e-001 -1.161583e-001
      outer loop
         vertex 2.450000e+001 1.924989e+001 5.350831e+001
         vertex 1.550000e+001 1.924989e+001 5.350831e+001
         vertex 1.550000e+001 1.930002e+001 5.293527e+001
      endloop
   endfacet
   facet normal 0.000000e+000 -9.983119e-001 -5.807913e-002
      outer loop
         vertex 2.450000e+001 1.924989e+001 5.350831e+001
         vertex 1.550000e+001 1.930002e+001 5.293527e+001
         vertex 2.450000e+001 1.930002e+001 5.293527e+001
      endloop
   endfacet
   facet normal 0.000000e+000 1.000000e+000 0.000000e+000
      outer loop
         vertex 2.450000e+001 1.270002e+001 5.293527e+001
         vertex 2.450000e+001 1.270002e+001 2.508848e+001
         vertex 1.550000e+001 1.270002e+001 5.293527e+001
      endloop
   endfacet
   facet normal 0.000000e+000 1.000000e+000 0.000000e+000
      outer loop
         vertex 1.550000e+001 1.270002e+001 5.293527e+001
         vertex 2.450000e+001 1.270002e+001 2.508848e+001
         vertex 1.550000e+001 1.270002e+001 2.508848e+001
      endloop
   endfacet
   facet normal 0.000000e+000 0.000000e+000 -1.000000e+000
      outer loop
         vertex 2.450000e+001 2.468005e-005 2.518527e+001
         vertex 1.550000e+001 2.468005e-005 2.518527e+001
         vertex 2.450000e+001 6.500025e+000 2.518527e+001
      endloop
   endfacet
   facet normal 0.000000e+000 0.000000e+000 -1.000000e+000
      outer loop
         vertex 2.450000e+001 6.500025e+000 2.518527e+001
         vertex 1.550000e+001 2.468005e-005 2.518527e+001
         vertex 1.550000e+001 6.500025e+000 2.518527e+001
      endloop
   endfacet
   facet normal 1.927471e-016 0.000000e+000 1.000000e+000
      outer loop
         vertex 1.550000e+001 2.468005e-005 3.418527e+001
         vertex 2.450000e+001 2.468005e-005 3.418527e+001
         vertex 1.550000e+001 6.500025e+000 3.418527e+001
      endloop
   endfacet
   facet normal 1.927471e-016 0.000000e+000 1.000000e+000
      outer loop
         vertex 1.550000e+001 6.500025e+000 3.418527e+001
         vertex 2.450000e+001 2.468005e-005 3.418527e+001
         vertex 2.450000e+001 6.500025e+000 3.418527e+001
      endloop
   endfacet
   facet normal 0.000000e+000 -1.000000e+000 0.000000e+000
      outer loop
         vertex 2.450000e+001 2.468005e-005 2.518527e+001
         vertex 2.450000e+001 2.468005e-005 3.418527e+001
         vertex 1.550000e+001 2.468005e-005 2.518527e+001
      endloop
   endfacet
   facet normal 0.000000e+000 -1.000000e+000 0.000000e+000
      outer loop
         vertex 1.550000e+001 2.468005e-005 2.518527e+001
         vertex 2.450000e+001 2.468005e-005 3.418527e+001
         vertex 1.550000e+001 2.468005e-005 3.418527e+001
      endloop
   endfacet
endsolid